<svg width="1519" height="1055" viewBox="0 0 1519 1055" fill="none" xmlns="http://www.w3.org/2000/svg">
<g clip-path="url(#clip0_575_19)">
<rect width="1519" height="1055" fill="white"/>
<path d="M702.5 377.982C896.133 458.904 1014.23 569.09 1090.7 711.029C1162.47 844.246 1180.7 940.651 1197.5 1065.51C1205.99 1128.66 1207.13 1191.74 1206.13 1239.13C1205.74 1257.33 1205.04 1273.19 1204.32 1285.81C1201.72 1314.86 1198.79 1331.34 1198.79 1331.34C1198.79 1331.34 1179.41 1034.27 940.34 769.675C672.359 473.08 185.128 498.014 185.128 498.014L206.145 299.004C206.145 299.004 282.854 294.952 392.569 306.785C411.844 309.443 433.618 312.652 456.751 316.427C505.821 324.435 560.614 334.92 610.591 347.935C641.016 356.437 671.825 366.377 702.5 377.982ZM613.298 15.4056C613.298 15.4056 1124.55 87.9801 1336.04 549.734C1464.99 831.288 1228.19 1318.08 1223.84 1326.97C1226.81 1318.2 1229.91 1309.2 1233.18 1299.92C1267.24 1203.09 1292.12 1033.58 1294.33 958.105C1296.66 878.487 1296.2 817.433 1286.8 757.155C1277.37 696.755 1259.06 637.602 1226.17 561.467C1194.07 487.156 1136.42 421.629 1080.35 370.842C1024.18 319.973 968.858 283.227 940.457 266.586C836.722 205.804 734.883 168.966 659.009 147.322C621.055 136.495 589.55 129.458 567.491 125.119C560.321 123.709 554.147 122.585 549.072 121.708L613.298 15.4056ZM652.913 168.707C727.515 189.988 827.514 226.175 929.221 285.768C956.5 301.753 1010.55 337.618 1065.42 387.319C1070.08 391.537 1074.73 395.852 1079.37 400.256C1107.72 427.962 1135 458.512 1160.74 492.192C1178.5 516.91 1194 543.052 1205.76 570.278C1238.14 645.256 1255.78 702.556 1264.83 760.577C1265 761.678 1265.16 762.782 1265.33 763.883C1283.26 928.195 1253.9 1112.06 1228.54 1229.58C1229.18 1182.8 1227.64 1122.84 1219.53 1062.55C1202.58 936.487 1183.86 837.075 1110.28 700.488C1030.55 552.498 907.071 438.452 706.669 355.632C675.546 342.77 637.822 331.551 598.281 321.904C514.438 298.459 441.309 288.731 395.139 284.695C381.027 282.749 368.255 281.093 357.262 279.734C352.697 279.169 348.436 278.663 344.514 278.199L390.542 130.708C390.542 130.708 445.649 128.906 529.742 141.105C529.737 141.144 529.736 141.16 529.736 141.16L529.756 141.161C529.774 141.164 529.803 141.168 529.843 141.173C529.926 141.184 530.056 141.205 530.232 141.23C530.586 141.278 531.129 141.349 531.852 141.453C533.298 141.663 535.471 141.993 538.321 142.452C544.023 143.37 552.447 144.819 563.209 146.936C584.738 151.17 615.632 158.072 652.913 168.707Z" fill="#2A99B4" fill-opacity="0.1"/>
<path d="M157.625 978.5C155.889 978.5 154.174 978.122 152.479 977.365C150.785 976.608 149.243 975.535 147.854 974.146C146.465 972.757 145.392 971.215 144.635 969.521C143.878 967.826 143.5 966.111 143.5 964.375C143.5 964.125 143.583 963.917 143.75 963.75C143.917 963.583 144.125 963.5 144.375 963.5H147.75C147.944 963.5 148.118 963.566 148.271 963.698C148.424 963.83 148.514 963.986 148.542 964.167L149.083 967.083C149.111 967.306 149.104 967.493 149.062 967.646C149.021 967.799 148.944 967.931 148.833 968.042L146.812 970.083C147.09 970.597 147.42 971.094 147.802 971.573C148.184 972.052 148.604 972.514 149.062 972.958C149.493 973.389 149.944 973.788 150.417 974.156C150.889 974.524 151.389 974.861 151.917 975.167L153.875 973.208C154 973.083 154.163 972.99 154.365 972.927C154.566 972.865 154.764 972.847 154.958 972.875L157.833 973.458C158.028 973.514 158.188 973.615 158.312 973.76C158.438 973.906 158.5 974.069 158.5 974.25V977.625C158.5 977.875 158.417 978.083 158.25 978.25C158.083 978.417 157.875 978.5 157.625 978.5ZM146.021 968.5L147.396 967.125L147.042 965.167H145.188C145.257 965.736 145.354 966.299 145.479 966.854C145.604 967.41 145.785 967.958 146.021 968.5ZM153.479 975.958C154.021 976.194 154.573 976.382 155.135 976.521C155.698 976.66 156.264 976.75 156.833 976.792V974.958L154.875 974.562L153.479 975.958Z" fill="white"/>
<g clip-path="url(#clip1_575_19)">
<path fill-rule="evenodd" clip-rule="evenodd" d="M150 914C152.761 914 155 911.761 155 909C155 906.239 152.761 904 150 904C147.239 904 145 906.239 145 909C145 911.761 147.239 914 150 914ZM150 912.333C151.841 912.333 153.333 910.841 153.333 909C153.333 907.159 151.841 905.667 150 905.667C148.159 905.667 146.667 907.159 146.667 909C146.667 910.841 148.159 912.333 150 912.333Z" fill="white"/>
<path d="M155 903.167C154.54 903.167 154.167 903.54 154.167 904C154.167 904.46 154.54 904.833 155 904.833C155.461 904.833 155.834 904.46 155.834 904C155.834 903.54 155.461 903.167 155 903.167Z" fill="white"/>
<path fill-rule="evenodd" clip-rule="evenodd" d="M141.378 902.563C140.833 903.633 140.833 905.033 140.833 907.833V910.167C140.833 912.967 140.833 914.367 141.378 915.437C141.857 916.377 142.622 917.142 143.563 917.622C144.633 918.167 146.033 918.167 148.833 918.167H151.166C153.967 918.167 155.367 918.167 156.436 917.622C157.377 917.142 158.142 916.377 158.621 915.437C159.166 914.367 159.166 912.967 159.166 910.167V907.833C159.166 905.033 159.166 903.633 158.621 902.563C158.142 901.623 157.377 900.858 156.436 900.378C155.367 899.833 153.967 899.833 151.166 899.833H148.833C146.033 899.833 144.633 899.833 143.563 900.378C142.622 900.858 141.857 901.623 141.378 902.563ZM151.166 901.5H148.833C147.405 901.5 146.435 901.501 145.685 901.563C144.954 901.622 144.58 901.73 144.32 901.863C143.692 902.183 143.183 902.693 142.863 903.32C142.73 903.581 142.622 903.954 142.562 904.685C142.501 905.435 142.5 906.406 142.5 907.833V910.167C142.5 911.594 142.501 912.565 142.562 913.315C142.622 914.046 142.73 914.419 142.863 914.68C143.183 915.307 143.692 915.817 144.32 916.137C144.58 916.269 144.954 916.378 145.685 916.437C146.435 916.499 147.405 916.5 148.833 916.5H151.166C152.594 916.5 153.564 916.499 154.315 916.437C155.045 916.378 155.419 916.269 155.68 916.137C156.307 915.817 156.817 915.307 157.136 914.68C157.269 914.419 157.377 914.046 157.437 913.315C157.498 912.565 157.5 911.594 157.5 910.167V907.833C157.5 906.406 157.498 905.435 157.437 904.685C157.377 903.954 157.269 903.581 157.136 903.32C156.817 902.693 156.307 902.183 155.68 901.863C155.419 901.73 155.045 901.622 154.315 901.563C153.564 901.501 152.594 901.5 151.166 901.5Z" fill="white"/>
</g>
<path d="M160.372 934.89V945.753C160.372 946.459 159.8 947.031 159.095 947.031H156.112V939.789L151 943.624L145.888 939.789V947.032H142.905C142.2 947.032 141.628 946.46 141.628 945.754V945.754V934.891C141.628 933.832 142.486 932.973 143.545 932.973C143.979 932.973 144.379 933.118 144.7 933.36L144.695 933.356L151 938.086L157.305 933.356C157.621 933.117 158.021 932.973 158.455 932.973C159.514 932.973 160.372 933.831 160.372 934.89Z" fill="white"/>
</g>
<defs>
<clipPath id="clip0_575_19">
<rect width="1519" height="1055" fill="white"/>
</clipPath>
<clipPath id="clip1_575_19">
<rect width="20" height="20" fill="white" transform="translate(140 899)"/>
</clipPath>
</defs>
</svg>
