<svg width="1519" height="704" viewBox="0 0 1519 704" fill="none" xmlns="http://www.w3.org/2000/svg">
<g clip-path="url(#clip0_564_4)">
<rect width="1519" height="704" fill="white"/>
<path d="M-41.2477 713.308C4.25256 755.461 44.468 790.336 84.0882 825.339C122.154 858.968 159.779 892.819 201.361 933.641C189.69 952.454 190.155 977.287 204.396 995.916C221.41 1018.17 252.113 1023.76 275.684 1009.95C320.11 1057.44 368.671 1112.06 409.002 1158.2C434.239 1187.08 456.212 1212.6 471.873 1230.88C474.338 1233.76 476.636 1236.47 478.779 1238.98C436.9 1214.24 359.479 1173.71 275.767 1155.88C179.063 1135.28 79.3669 1160.59 79.3507 1160.59C79.3507 1160.59 81.5181 1051.17 59.4277 939.486C42.2781 852.785 -2.65677 771.109 -41.2477 713.308ZM-35.1472 679.514C20.5314 715.002 105.408 759.806 204.782 781.099C314.265 804.559 377.17 827.256 377.365 827.326C377.555 827.766 401.133 882.491 440.227 1004.7C464.631 1080.98 488.654 1171.17 501.565 1221.17C499.19 1218.39 496.612 1215.35 493.823 1212.09C478.113 1193.75 456.072 1168.16 430.756 1139.19C390.134 1092.71 340.958 1037.4 295.932 989.299C306.253 970.783 305.31 947.149 291.619 929.237C275.134 907.674 245.798 901.747 222.55 913.963C180.066 872.209 141.748 837.73 103.218 803.691C59.4688 765.041 15.5999 727.076 -35.1472 679.514Z" fill="#2A99B4" fill-opacity="0.1"/>
<path d="M-120.245 305.416C-109.371 298.209 -110.095 290.949 -121.858 289.198C-133.621 287.447 -151.973 291.871 -162.847 299.079L-120.245 305.416ZM-162.847 299.079C-199.431 323.326 -220.62 344.359 -222.505 361.017C-224.443 378.156 -205.715 388.178 -175.218 392.63C-116.423 401.209 -7.68037 390.209 121.515 367.142C382.587 320.533 753.667 219.811 1060.46 94.115L1036.37 78.1872C739.842 199.682 379.461 297.469 128.142 342.34C1.14153 365.013 -91.5435 372.996 -136.008 366.508C-157.14 363.427 -165.502 357.405 -164.562 349.076C-163.564 340.262 -151.902 326.399 -120.245 305.416L-162.847 299.079ZM1060.46 94.115C1086.46 83.46 1106.26 75.5784 1120.77 70.0634C1128.02 67.3041 1133.66 65.25 1137.89 63.7858C1142.43 62.2147 1144.21 61.7271 1144.17 61.7391C1144.04 61.7715 1143.59 61.8869 1142.89 62.0376C1142.21 62.1836 1141.01 62.4234 1139.47 62.6442C1136.78 63.0302 1130.08 63.7725 1124.62 62.2804C1118.61 60.6364 1118.16 57.4301 1118.84 55.3098C1119.44 53.4525 1120.95 52.0261 1121.22 51.7634C1121.84 51.1816 1121.73 51.4237 1119.25 53.0391C1117.1 54.4493 1113.98 56.3593 1109.8 58.8137C1074.82 79.3246 992.591 121.817 903.818 168.924C816.896 215.051 724.068 265.423 673.162 299.374C660.319 307.936 649.214 316.063 641.474 323.154C634.305 329.718 627.123 337.986 629.613 344.462C632.675 352.409 648.208 353.993 664.962 352.51C680.271 351.158 699.4 347.162 720.616 341.75L716.312 319.316C697.674 324.073 687.792 325.722 683.529 326.099C680.698 326.349 686.091 325.749 687.033 328.207C687.414 329.195 686.15 328.671 691.528 323.748C696.328 319.351 704.393 313.296 715.94 305.591C762.601 274.474 850.896 226.417 938.784 179.781C1024.82 134.125 1111.09 89.5183 1148.43 67.6205C1153.29 64.7736 1157.72 62.0811 1161.42 59.6632C1164.81 57.45 1168.88 54.6388 1171.82 51.8536C1173.26 50.4891 1175.47 48.1738 1176.28 45.6495C1177.18 42.8633 1176.46 39.2126 1169.67 37.3558C1163.43 35.6509 1155.45 36.4121 1150.95 37.0587C1146.28 37.7258 1142.08 38.7287 1139.2 39.4777C1128.77 42.1846 1114.99 47.1274 1100 52.8289C1083.87 58.9577 1062.84 67.3427 1036.37 78.1872L1060.46 94.115ZM720.616 341.75C898.535 296.347 931.113 290.118 1122.82 227.93L1108.99 208.252C922.364 268.793 893.981 273.979 716.312 319.316L720.616 341.75ZM1122.82 227.93C1134.37 224.182 1141.51 222.043 1145.46 220.996C1147.58 220.435 1147.24 220.606 1145.54 220.885C1145.1 220.958 1135.45 222.65 1128.94 220.099C1121.43 217.157 1125.6 211.832 1126.57 210.737C1127.74 209.41 1128.85 208.765 1127.86 209.446C1126.17 210.607 1122.39 212.907 1115.51 216.774C1090.36 230.938 1032.27 261.189 973.079 295.926C853.988 365.82 705.731 467.618 725.072 548.059L782.832 532.905C766.303 464.131 893.601 374.055 1011.75 304.714C1071.18 269.834 1122.13 243.63 1152.7 226.413C1159.77 222.435 1166.59 218.457 1171.49 215.092C1173.79 213.511 1177.19 211.042 1179.57 208.353C1181.73 205.896 1186.02 199.67 1177.45 196.312C1169.87 193.344 1157.99 195.106 1154.05 195.756C1148.86 196.613 1143.75 197.868 1139.78 198.924C1131.52 201.109 1121.08 204.33 1108.99 208.252L1122.82 227.93ZM725.072 548.059C728.862 563.852 746.345 577.411 771.714 589.18C797.244 601.019 831.816 611.511 871.906 620.821C952.067 639.44 1056.27 653.758 1160.01 664.442C1263.89 675.139 1368.02 682.267 1448.51 686.398C1488.75 688.464 1523.22 689.79 1548.93 690.434C1561.76 690.754 1572.61 690.912 1581 690.899C1585.17 690.892 1589.01 690.846 1592.33 690.735C1594.81 690.652 1599.55 690.477 1604.53 689.769L1616.15 664.162C1618.86 663.777 1619.86 663.849 1617.21 663.936C1615.39 663.994 1612.7 664.039 1609.05 664.044C1601.81 664.057 1591.86 663.918 1579.44 663.606C1554.67 662.985 1520.95 661.695 1481.23 659.659C1401.81 655.58 1298.98 648.543 1196.55 637.992C1093.98 627.425 992.52 613.415 915.347 595.494C876.768 586.536 844.751 576.711 821.737 566.037C798.563 555.293 785.541 544.149 782.832 532.905L725.072 548.059Z" fill="#2A99B4" fill-opacity="0.1"/>
<path d="M173.5 636.333L167.458 630.292L169.15 628.54L172.291 631.681V621.833H174.708V631.681L177.85 628.54L179.541 630.292L173.5 636.333ZM166.25 641.167C165.585 641.167 165.016 640.93 164.543 640.457C164.07 639.984 163.833 639.415 163.833 638.75V635.125H166.25V638.75H180.75V635.125H183.166V638.75C183.166 639.415 182.93 639.984 182.456 640.457C181.983 640.93 181.414 641.167 180.75 641.167H166.25Z" fill="white"/>
</g>
<defs>
<clipPath id="clip0_564_4">
<rect width="1519" height="704" fill="white"/>
</clipPath>
</defs>
</svg>
