<svg width="1519" height="725" viewBox="0 0 1519 725" fill="none" xmlns="http://www.w3.org/2000/svg">
<g clip-path="url(#clip0_575_4)">
<rect width="1519" height="725" fill="white"/>
<path d="M-41.2477 35.3079C4.25256 77.4608 44.468 112.336 84.0882 147.339C122.154 180.968 159.779 214.819 201.361 255.641C189.69 274.454 190.155 299.287 204.396 317.916C221.41 340.17 252.113 345.76 275.684 331.948C320.11 379.437 368.671 434.056 409.002 480.204C434.239 509.081 456.212 534.598 471.873 552.884C474.338 555.763 476.636 558.472 478.779 560.978C436.9 536.243 359.479 495.709 275.767 477.877C179.063 457.277 79.3669 482.589 79.3507 482.593C79.3507 482.593 81.5181 373.168 59.4277 261.486C42.2781 174.785 -2.65677 93.1089 -41.2477 35.3079ZM-35.1472 1.51386C20.5314 37.0024 105.408 81.8064 204.782 103.099C314.265 126.559 377.17 149.256 377.365 149.326C377.555 149.766 401.133 204.491 440.227 326.7C464.631 402.984 488.654 493.167 501.565 543.167C499.19 540.386 496.612 537.346 493.823 534.09C478.113 515.747 456.072 490.157 430.756 461.189C390.134 414.71 340.959 359.396 295.932 311.299C306.253 292.783 305.31 269.149 291.619 251.237C275.134 229.674 245.798 223.747 222.55 235.963C180.066 194.209 141.748 159.73 103.218 125.691C59.4688 87.0409 15.5999 49.0762 -35.1472 1.51386Z" fill="#2A99B4" fill-opacity="0.1"/>
<path d="M-120.245 -372.584C-109.371 -379.791 -110.095 -387.051 -121.858 -388.802C-133.621 -390.553 -151.973 -386.129 -162.847 -378.921L-120.245 -372.584ZM-162.847 -378.921C-199.431 -354.674 -220.62 -333.641 -222.505 -316.983C-224.443 -299.844 -205.715 -289.822 -175.218 -285.37C-116.423 -276.791 -7.68037 -287.791 121.515 -310.858C382.587 -357.467 753.667 -458.189 1060.46 -583.885L1036.37 -599.813C739.842 -478.318 379.461 -380.531 128.142 -335.66C1.14153 -312.987 -91.5435 -305.004 -136.008 -311.492C-157.14 -314.573 -165.502 -320.595 -164.562 -328.924C-163.564 -337.738 -151.902 -351.601 -120.245 -372.584L-162.847 -378.921ZM1060.46 -583.885C1086.46 -594.54 1106.26 -602.422 1120.77 -607.937C1128.02 -610.696 1133.66 -612.75 1137.89 -614.214C1142.43 -615.785 1144.21 -616.273 1144.17 -616.261C1144.04 -616.228 1143.59 -616.113 1142.89 -615.962C1142.21 -615.816 1141.01 -615.577 1139.47 -615.356C1136.78 -614.97 1130.08 -614.227 1124.62 -615.72C1118.61 -617.364 1118.16 -620.57 1118.84 -622.69C1119.44 -624.548 1120.95 -625.974 1121.22 -626.237C1121.84 -626.818 1121.73 -626.576 1119.25 -624.961C1117.1 -623.551 1113.98 -621.641 1109.8 -619.186C1074.82 -598.675 992.591 -556.183 903.818 -509.076C816.896 -462.949 724.068 -412.577 673.162 -378.626C660.319 -370.064 649.214 -361.937 641.474 -354.846C634.305 -348.282 627.123 -340.014 629.613 -333.538C632.675 -325.591 648.208 -324.007 664.962 -325.49C680.271 -326.842 699.4 -330.838 720.616 -336.25L716.312 -358.684C697.674 -353.927 687.792 -352.278 683.529 -351.901C680.698 -351.651 686.091 -352.251 687.033 -349.793C687.414 -348.805 686.15 -349.329 691.528 -354.252C696.328 -358.649 704.393 -364.704 715.94 -372.409C762.601 -403.526 850.896 -451.583 938.784 -498.219C1024.82 -543.875 1111.09 -588.482 1148.43 -610.38C1153.29 -613.226 1157.72 -615.919 1161.42 -618.337C1164.81 -620.55 1168.88 -623.361 1171.82 -626.146C1173.26 -627.511 1175.47 -629.826 1176.28 -632.351C1177.18 -635.137 1176.46 -638.787 1169.67 -640.644C1163.43 -642.349 1155.45 -641.588 1150.95 -640.941C1146.28 -640.274 1142.08 -639.271 1139.2 -638.522C1128.77 -635.815 1114.99 -630.873 1100 -625.171C1083.87 -619.042 1062.84 -610.657 1036.37 -599.813L1060.46 -583.885ZM720.616 -336.25C898.535 -381.653 931.113 -387.882 1122.82 -450.07L1108.99 -469.748C922.364 -409.207 893.981 -404.021 716.312 -358.684L720.616 -336.25ZM1122.82 -450.07C1134.37 -453.818 1141.51 -455.957 1145.46 -457.004C1147.58 -457.565 1147.24 -457.394 1145.54 -457.115C1145.1 -457.042 1135.45 -455.35 1128.94 -457.901C1121.43 -460.843 1125.6 -466.168 1126.57 -467.263C1127.74 -468.59 1128.85 -469.235 1127.86 -468.554C1126.17 -467.393 1122.39 -465.093 1115.51 -461.226C1090.36 -447.062 1032.27 -416.811 973.079 -382.074C853.988 -312.18 705.731 -210.382 725.072 -129.941L782.832 -145.095C766.303 -213.869 893.601 -303.945 1011.75 -373.286C1071.18 -408.166 1122.13 -434.37 1152.7 -451.587C1159.77 -455.565 1166.59 -459.543 1171.49 -462.908C1173.79 -464.489 1177.19 -466.958 1179.57 -469.647C1181.73 -472.104 1186.02 -478.33 1177.45 -481.688C1169.87 -484.656 1157.99 -482.894 1154.05 -482.244C1148.86 -481.387 1143.75 -480.132 1139.78 -479.076C1131.52 -476.891 1121.08 -473.67 1108.99 -469.748L1122.82 -450.07ZM725.072 -129.941C728.862 -114.148 746.345 -100.589 771.714 -88.8202C797.244 -76.9811 831.816 -66.4889 871.906 -57.1788C952.067 -38.5604 1056.27 -24.2417 1160.01 -13.5576C1263.89 -2.86097 1368.02 4.26656 1448.51 8.3977C1488.75 10.4643 1523.22 11.7901 1548.93 12.4343C1561.76 12.7536 1572.61 12.912 1581 12.8986C1585.17 12.892 1589.01 12.8458 1592.33 12.7346C1594.81 12.6525 1599.55 12.4772 1604.53 11.7689L1616.15 -13.8377C1618.86 -14.2228 1619.86 -14.1514 1617.21 -14.0642C1615.39 -14.006 1612.7 -13.9608 1609.05 -13.9563C1601.81 -13.9431 1591.86 -14.0824 1579.44 -14.3939C1554.67 -15.0155 1520.95 -16.3054 1481.23 -18.3414C1401.81 -22.4202 1298.98 -29.4575 1196.55 -40.0079C1093.98 -50.5748 992.52 -64.5854 915.347 -82.5061C876.768 -91.4636 844.751 -101.289 821.737 -111.963C798.563 -122.707 785.541 -133.851 782.832 -145.095L725.072 -129.941Z" fill="#2A99B4" fill-opacity="0.1"/>
</g>
<defs>
<clipPath id="clip0_575_4">
<rect width="1519" height="725" fill="white"/>
</clipPath>
</defs>
</svg>
