<svg width="577" height="497" viewBox="0 0 577 497" fill="none" xmlns="http://www.w3.org/2000/svg">
<mask id="path-1-outside-1_232_1008" maskUnits="userSpaceOnUse" x="36" y="426" width="510" height="56" fill="black">
<rect fill="white" x="36" y="426" width="510" height="56"/>
<path d="M37.1029 480V431H42.8429L64.8229 468.03H61.7429L83.4429 431H89.1829L89.2529 480H82.5329L82.4629 441.57H84.0729L64.7529 474.05H61.5329L42.0729 441.57H43.8229V480H37.1029ZM147.498 480.42C143.532 480.42 140.032 479.603 136.998 477.97C134.012 476.337 131.678 474.097 129.998 471.25C128.365 468.403 127.548 465.137 127.548 461.45C127.548 457.763 128.342 454.497 129.928 451.65C131.562 448.803 133.778 446.587 136.578 445C139.425 443.367 142.622 442.55 146.168 442.55C149.762 442.55 152.935 443.343 155.688 444.93C158.442 446.517 160.588 448.757 162.128 451.65C163.715 454.497 164.508 457.833 164.508 461.66C164.508 461.94 164.485 462.267 164.438 462.64C164.438 463.013 164.415 463.363 164.368 463.69H132.798V458.86H160.868L158.138 460.54C158.185 458.16 157.695 456.037 156.668 454.17C155.642 452.303 154.218 450.857 152.398 449.83C150.625 448.757 148.548 448.22 146.168 448.22C143.835 448.22 141.758 448.757 139.938 449.83C138.118 450.857 136.695 452.327 135.668 454.24C134.642 456.107 134.128 458.253 134.128 460.68V461.8C134.128 464.273 134.688 466.49 135.808 468.45C136.975 470.363 138.585 471.857 140.638 472.93C142.692 474.003 145.048 474.54 147.708 474.54C149.902 474.54 151.885 474.167 153.658 473.42C155.478 472.673 157.065 471.553 158.418 470.06L162.128 474.4C160.448 476.36 158.348 477.853 155.828 478.88C153.355 479.907 150.578 480.42 147.498 480.42ZM217.17 480.42C213.576 480.42 210.356 479.627 207.51 478.04C204.71 476.453 202.493 474.237 200.86 471.39C199.226 468.543 198.41 465.23 198.41 461.45C198.41 457.67 199.226 454.38 200.86 451.58C202.493 448.733 204.71 446.517 207.51 444.93C210.356 443.343 213.576 442.55 217.17 442.55C220.296 442.55 223.12 443.25 225.64 444.65C228.16 446.05 230.166 448.15 231.66 450.95C233.2 453.75 233.97 457.25 233.97 461.45C233.97 465.65 233.223 469.15 231.73 471.95C230.283 474.75 228.3 476.873 225.78 478.32C223.26 479.72 220.39 480.42 217.17 480.42ZM217.73 474.54C220.063 474.54 222.163 474.003 224.03 472.93C225.943 471.857 227.436 470.34 228.51 468.38C229.63 466.373 230.19 464.063 230.19 461.45C230.19 458.79 229.63 456.503 228.51 454.59C227.436 452.63 225.943 451.113 224.03 450.04C222.163 448.967 220.063 448.43 217.73 448.43C215.35 448.43 213.226 448.967 211.36 450.04C209.493 451.113 208 452.63 206.88 454.59C205.76 456.503 205.2 458.79 205.2 461.45C205.2 464.063 205.76 466.373 206.88 468.38C208 470.34 209.493 471.857 211.36 472.93C213.226 474.003 215.35 474.54 217.73 474.54ZM230.4 480V469.99L230.82 461.38L230.12 452.77V428.06H236.84V480H230.4ZM277.555 480V442.9H284.275V480H277.555ZM280.915 435.76C279.608 435.76 278.511 435.34 277.625 434.5C276.785 433.66 276.365 432.633 276.365 431.42C276.365 430.16 276.785 429.11 277.625 428.27C278.511 427.43 279.608 427.01 280.915 427.01C282.221 427.01 283.295 427.43 284.135 428.27C285.021 429.063 285.465 430.067 285.465 431.28C285.465 432.54 285.045 433.613 284.205 434.5C283.365 435.34 282.268 435.76 280.915 435.76ZM337.845 480.42C334.112 480.42 331.219 479.417 329.165 477.41C327.112 475.403 326.085 472.533 326.085 468.8V434.78H332.805V468.52C332.805 470.527 333.295 472.067 334.275 473.14C335.302 474.213 336.749 474.75 338.615 474.75C340.715 474.75 342.465 474.167 343.865 473L345.965 477.83C344.939 478.717 343.702 479.37 342.255 479.79C340.855 480.21 339.385 480.42 337.845 480.42ZM319.785 448.43V442.9H343.445V448.43H319.785ZM396.749 480.42C393.016 480.42 389.703 479.603 386.809 477.97C383.916 476.337 381.629 474.097 379.949 471.25C378.269 468.357 377.429 465.09 377.429 461.45C377.429 457.763 378.269 454.497 379.949 451.65C381.629 448.803 383.916 446.587 386.809 445C389.703 443.367 393.016 442.55 396.749 442.55C400.436 442.55 403.726 443.367 406.619 445C409.559 446.587 411.846 448.803 413.479 451.65C415.159 454.45 415.999 457.717 415.999 461.45C415.999 465.137 415.159 468.403 413.479 471.25C411.846 474.097 409.559 476.337 406.619 477.97C403.726 479.603 400.436 480.42 396.749 480.42ZM396.749 474.54C399.129 474.54 401.253 474.003 403.119 472.93C405.033 471.857 406.526 470.34 407.599 468.38C408.673 466.373 409.209 464.063 409.209 461.45C409.209 458.79 408.673 456.503 407.599 454.59C406.526 452.63 405.033 451.113 403.119 450.04C401.253 448.967 399.129 448.43 396.749 448.43C394.369 448.43 392.246 448.967 390.379 450.04C388.513 451.113 387.019 452.63 385.899 454.59C384.779 456.503 384.219 458.79 384.219 461.45C384.219 464.063 384.779 466.373 385.899 468.38C387.019 470.34 388.513 471.857 390.379 472.93C392.246 474.003 394.369 474.54 396.749 474.54ZM453.293 480V442.9H459.733V452.98L459.103 450.46C460.13 447.893 461.856 445.933 464.283 444.58C466.71 443.227 469.696 442.55 473.243 442.55V449.06C472.963 449.013 472.683 448.99 472.403 448.99C472.17 448.99 471.936 448.99 471.703 448.99C468.11 448.99 465.263 450.063 463.163 452.21C461.063 454.357 460.013 457.46 460.013 461.52V480H453.293ZM525.073 480.42C521.34 480.42 518.027 479.603 515.133 477.97C512.24 476.337 509.953 474.097 508.273 471.25C506.593 468.357 505.753 465.09 505.753 461.45C505.753 457.763 506.593 454.497 508.273 451.65C509.953 448.803 512.24 446.587 515.133 445C518.027 443.367 521.34 442.55 525.073 442.55C528.76 442.55 532.05 443.367 534.943 445C537.883 446.587 540.17 448.803 541.803 451.65C543.483 454.45 544.323 457.717 544.323 461.45C544.323 465.137 543.483 468.403 541.803 471.25C540.17 474.097 537.883 476.337 534.943 477.97C532.05 479.603 528.76 480.42 525.073 480.42ZM525.073 474.54C527.453 474.54 529.577 474.003 531.443 472.93C533.357 471.857 534.85 470.34 535.923 468.38C536.997 466.373 537.533 464.063 537.533 461.45C537.533 458.79 536.997 456.503 535.923 454.59C534.85 452.63 533.357 451.113 531.443 450.04C529.577 448.967 527.453 448.43 525.073 448.43C522.693 448.43 520.57 448.967 518.703 450.04C516.837 451.113 515.343 452.63 514.223 454.59C513.103 456.503 512.543 458.79 512.543 461.45C512.543 464.063 513.103 466.373 514.223 468.38C515.343 470.34 516.837 471.857 518.703 472.93C520.57 474.003 522.693 474.54 525.073 474.54Z"/>
</mask>
<path d="M37.1029 480V431H42.8429L64.8229 468.03H61.7429L83.4429 431H89.1829L89.2529 480H82.5329L82.4629 441.57H84.0729L64.7529 474.05H61.5329L42.0729 441.57H43.8229V480H37.1029ZM147.498 480.42C143.532 480.42 140.032 479.603 136.998 477.97C134.012 476.337 131.678 474.097 129.998 471.25C128.365 468.403 127.548 465.137 127.548 461.45C127.548 457.763 128.342 454.497 129.928 451.65C131.562 448.803 133.778 446.587 136.578 445C139.425 443.367 142.622 442.55 146.168 442.55C149.762 442.55 152.935 443.343 155.688 444.93C158.442 446.517 160.588 448.757 162.128 451.65C163.715 454.497 164.508 457.833 164.508 461.66C164.508 461.94 164.485 462.267 164.438 462.64C164.438 463.013 164.415 463.363 164.368 463.69H132.798V458.86H160.868L158.138 460.54C158.185 458.16 157.695 456.037 156.668 454.17C155.642 452.303 154.218 450.857 152.398 449.83C150.625 448.757 148.548 448.22 146.168 448.22C143.835 448.22 141.758 448.757 139.938 449.83C138.118 450.857 136.695 452.327 135.668 454.24C134.642 456.107 134.128 458.253 134.128 460.68V461.8C134.128 464.273 134.688 466.49 135.808 468.45C136.975 470.363 138.585 471.857 140.638 472.93C142.692 474.003 145.048 474.54 147.708 474.54C149.902 474.54 151.885 474.167 153.658 473.42C155.478 472.673 157.065 471.553 158.418 470.06L162.128 474.4C160.448 476.36 158.348 477.853 155.828 478.88C153.355 479.907 150.578 480.42 147.498 480.42ZM217.17 480.42C213.576 480.42 210.356 479.627 207.51 478.04C204.71 476.453 202.493 474.237 200.86 471.39C199.226 468.543 198.41 465.23 198.41 461.45C198.41 457.67 199.226 454.38 200.86 451.58C202.493 448.733 204.71 446.517 207.51 444.93C210.356 443.343 213.576 442.55 217.17 442.55C220.296 442.55 223.12 443.25 225.64 444.65C228.16 446.05 230.166 448.15 231.66 450.95C233.2 453.75 233.97 457.25 233.97 461.45C233.97 465.65 233.223 469.15 231.73 471.95C230.283 474.75 228.3 476.873 225.78 478.32C223.26 479.72 220.39 480.42 217.17 480.42ZM217.73 474.54C220.063 474.54 222.163 474.003 224.03 472.93C225.943 471.857 227.436 470.34 228.51 468.38C229.63 466.373 230.19 464.063 230.19 461.45C230.19 458.79 229.63 456.503 228.51 454.59C227.436 452.63 225.943 451.113 224.03 450.04C222.163 448.967 220.063 448.43 217.73 448.43C215.35 448.43 213.226 448.967 211.36 450.04C209.493 451.113 208 452.63 206.88 454.59C205.76 456.503 205.2 458.79 205.2 461.45C205.2 464.063 205.76 466.373 206.88 468.38C208 470.34 209.493 471.857 211.36 472.93C213.226 474.003 215.35 474.54 217.73 474.54ZM230.4 480V469.99L230.82 461.38L230.12 452.77V428.06H236.84V480H230.4ZM277.555 480V442.9H284.275V480H277.555ZM280.915 435.76C279.608 435.76 278.511 435.34 277.625 434.5C276.785 433.66 276.365 432.633 276.365 431.42C276.365 430.16 276.785 429.11 277.625 428.27C278.511 427.43 279.608 427.01 280.915 427.01C282.221 427.01 283.295 427.43 284.135 428.27C285.021 429.063 285.465 430.067 285.465 431.28C285.465 432.54 285.045 433.613 284.205 434.5C283.365 435.34 282.268 435.76 280.915 435.76ZM337.845 480.42C334.112 480.42 331.219 479.417 329.165 477.41C327.112 475.403 326.085 472.533 326.085 468.8V434.78H332.805V468.52C332.805 470.527 333.295 472.067 334.275 473.14C335.302 474.213 336.749 474.75 338.615 474.75C340.715 474.75 342.465 474.167 343.865 473L345.965 477.83C344.939 478.717 343.702 479.37 342.255 479.79C340.855 480.21 339.385 480.42 337.845 480.42ZM319.785 448.43V442.9H343.445V448.43H319.785ZM396.749 480.42C393.016 480.42 389.703 479.603 386.809 477.97C383.916 476.337 381.629 474.097 379.949 471.25C378.269 468.357 377.429 465.09 377.429 461.45C377.429 457.763 378.269 454.497 379.949 451.65C381.629 448.803 383.916 446.587 386.809 445C389.703 443.367 393.016 442.55 396.749 442.55C400.436 442.55 403.726 443.367 406.619 445C409.559 446.587 411.846 448.803 413.479 451.65C415.159 454.45 415.999 457.717 415.999 461.45C415.999 465.137 415.159 468.403 413.479 471.25C411.846 474.097 409.559 476.337 406.619 477.97C403.726 479.603 400.436 480.42 396.749 480.42ZM396.749 474.54C399.129 474.54 401.253 474.003 403.119 472.93C405.033 471.857 406.526 470.34 407.599 468.38C408.673 466.373 409.209 464.063 409.209 461.45C409.209 458.79 408.673 456.503 407.599 454.59C406.526 452.63 405.033 451.113 403.119 450.04C401.253 448.967 399.129 448.43 396.749 448.43C394.369 448.43 392.246 448.967 390.379 450.04C388.513 451.113 387.019 452.63 385.899 454.59C384.779 456.503 384.219 458.79 384.219 461.45C384.219 464.063 384.779 466.373 385.899 468.38C387.019 470.34 388.513 471.857 390.379 472.93C392.246 474.003 394.369 474.54 396.749 474.54ZM453.293 480V442.9H459.733V452.98L459.103 450.46C460.13 447.893 461.856 445.933 464.283 444.58C466.71 443.227 469.696 442.55 473.243 442.55V449.06C472.963 449.013 472.683 448.99 472.403 448.99C472.17 448.99 471.936 448.99 471.703 448.99C468.11 448.99 465.263 450.063 463.163 452.21C461.063 454.357 460.013 457.46 460.013 461.52V480H453.293ZM525.073 480.42C521.34 480.42 518.027 479.603 515.133 477.97C512.24 476.337 509.953 474.097 508.273 471.25C506.593 468.357 505.753 465.09 505.753 461.45C505.753 457.763 506.593 454.497 508.273 451.65C509.953 448.803 512.24 446.587 515.133 445C518.027 443.367 521.34 442.55 525.073 442.55C528.76 442.55 532.05 443.367 534.943 445C537.883 446.587 540.17 448.803 541.803 451.65C543.483 454.45 544.323 457.717 544.323 461.45C544.323 465.137 543.483 468.403 541.803 471.25C540.17 474.097 537.883 476.337 534.943 477.97C532.05 479.603 528.76 480.42 525.073 480.42ZM525.073 474.54C527.453 474.54 529.577 474.003 531.443 472.93C533.357 471.857 534.85 470.34 535.923 468.38C536.997 466.373 537.533 464.063 537.533 461.45C537.533 458.79 536.997 456.503 535.923 454.59C534.85 452.63 533.357 451.113 531.443 450.04C529.577 448.967 527.453 448.43 525.073 448.43C522.693 448.43 520.57 448.967 518.703 450.04C516.837 451.113 515.343 452.63 514.223 454.59C513.103 456.503 512.543 458.79 512.543 461.45C512.543 464.063 513.103 466.373 514.223 468.38C515.343 470.34 516.837 471.857 518.703 472.93C520.57 474.003 522.693 474.54 525.073 474.54Z" fill="#16515F"/>
<path d="M37.1029 480H36.1029V481H37.1029V480ZM37.1029 431V430H36.1029V431H37.1029ZM42.8429 431L43.7029 430.49L43.4123 430H42.8429V431ZM64.8229 468.03V469.03H66.5794L65.6829 467.52L64.8229 468.03ZM61.7429 468.03L60.8802 467.524L59.9979 469.03H61.7429V468.03ZM83.4429 431V430H82.8699L82.5802 430.494L83.4429 431ZM89.1829 431L90.1829 430.999L90.1815 430H89.1829V431ZM89.2529 480V481H90.2544L90.2529 479.999L89.2529 480ZM82.5329 480L81.5329 480.002L81.5348 481H82.5329V480ZM82.4629 441.57V440.57H81.4611L81.4629 441.572L82.4629 441.57ZM84.0729 441.57L84.9324 442.081L85.8313 440.57H84.0729V441.57ZM64.7529 474.05V475.05H65.3216L65.6124 474.561L64.7529 474.05ZM61.5329 474.05L60.6751 474.564L60.9663 475.05H61.5329V474.05ZM42.0729 441.57V440.57H40.308L41.2151 442.084L42.0729 441.57ZM43.8229 441.57H44.8229V440.57H43.8229V441.57ZM43.8229 480V481H44.8229V480H43.8229ZM37.1029 480H38.1029V431H37.1029H36.1029V480H37.1029ZM37.1029 431V432H42.8429V431V430H37.1029V431ZM42.8429 431L41.983 431.51L63.963 468.54L64.8229 468.03L65.6829 467.52L43.7029 430.49L42.8429 431ZM64.8229 468.03V467.03H61.7429V468.03V469.03H64.8229V468.03ZM61.7429 468.03L62.6057 468.536L84.3057 431.506L83.4429 431L82.5802 430.494L60.8802 467.524L61.7429 468.03ZM83.4429 431V432H89.1829V431V430H83.4429V431ZM89.1829 431L88.1829 431.001L88.2529 480.001L89.2529 480L90.2529 479.999L90.1829 430.999L89.1829 431ZM89.2529 480V479H82.5329V480V481H89.2529V480ZM82.5329 480L83.5329 479.998L83.4629 441.568L82.4629 441.57L81.4629 441.572L81.5329 480.002L82.5329 480ZM82.4629 441.57V442.57H84.0729V441.57V440.57H82.4629V441.57ZM84.0729 441.57L83.2135 441.059L63.8935 473.539L64.7529 474.05L65.6124 474.561L84.9324 442.081L84.0729 441.57ZM64.7529 474.05V473.05H61.5329V474.05V475.05H64.7529V474.05ZM61.5329 474.05L62.3908 473.536L42.9307 441.056L42.0729 441.57L41.2151 442.084L60.6751 474.564L61.5329 474.05ZM42.0729 441.57V442.57H43.8229V441.57V440.57H42.0729V441.57ZM43.8229 441.57H42.8229V480H43.8229H44.8229V441.57H43.8229ZM43.8229 480V479H37.1029V480V481H43.8229V480ZM136.998 477.97L136.519 478.847L136.524 478.85L136.998 477.97ZM129.998 471.25L129.131 471.748L129.137 471.758L129.998 471.25ZM129.928 451.65L129.061 451.152L129.055 451.163L129.928 451.65ZM136.578 445L137.071 445.87L137.076 445.867L136.578 445ZM155.688 444.93L156.188 444.064V444.064L155.688 444.93ZM162.128 451.65L161.246 452.12L161.25 452.128L161.255 452.137L162.128 451.65ZM164.438 462.64L163.446 462.516L163.438 462.578V462.64H164.438ZM164.368 463.69V464.69H165.236L165.358 463.831L164.368 463.69ZM132.798 463.69H131.798V464.69H132.798V463.69ZM132.798 458.86V457.86H131.798V458.86H132.798ZM160.868 458.86L161.393 459.712L164.401 457.86H160.868V458.86ZM158.138 460.54L157.139 460.52L157.103 462.352L158.662 461.392L158.138 460.54ZM156.668 454.17L157.545 453.688V453.688L156.668 454.17ZM152.398 449.83L151.881 450.685L151.894 450.693L151.907 450.701L152.398 449.83ZM139.938 449.83L140.43 450.701L140.438 450.696L140.446 450.691L139.938 449.83ZM135.668 454.24L136.545 454.722L136.55 454.713L135.668 454.24ZM135.808 468.45L134.94 468.946L134.947 468.958L134.955 468.971L135.808 468.45ZM140.638 472.93L141.102 472.044V472.044L140.638 472.93ZM153.658 473.42L153.279 472.495L153.27 472.498L153.658 473.42ZM158.418 470.06L159.179 469.41L158.44 468.547L157.677 469.388L158.418 470.06ZM162.128 474.4L162.888 475.051L163.445 474.401L162.889 473.75L162.128 474.4ZM155.828 478.88L155.451 477.954L155.445 477.956L155.828 478.88ZM147.498 480.42V479.42C143.672 479.42 140.339 478.633 137.473 477.09L136.998 477.97L136.524 478.85C139.724 480.573 143.391 481.42 147.498 481.42V480.42ZM136.998 477.97L137.478 477.093C134.645 475.543 132.445 473.428 130.86 470.742L129.998 471.25L129.137 471.758C130.912 474.765 133.379 477.13 136.519 478.847L136.998 477.97ZM129.998 471.25L130.866 470.752C129.33 468.075 128.548 464.984 128.548 461.45H127.548H126.548C126.548 465.289 127.4 468.732 129.131 471.748L129.998 471.25ZM127.548 461.45H128.548C128.548 457.911 129.309 454.816 130.802 452.137L129.928 451.65L129.055 451.163C127.375 454.177 126.548 457.616 126.548 461.45H127.548ZM129.928 451.65L130.796 452.148C132.342 449.453 134.431 447.367 137.071 445.87L136.578 445L136.085 444.13C133.126 445.807 130.782 448.153 129.061 451.152L129.928 451.65ZM136.578 445L137.076 445.867C139.759 444.328 142.782 443.55 146.168 443.55V442.55V441.55C142.462 441.55 139.091 442.405 136.081 444.133L136.578 445ZM146.168 442.55V443.55C149.61 443.55 152.607 444.308 155.189 445.796L155.688 444.93L156.188 444.064C153.263 442.378 149.914 441.55 146.168 441.55V442.55ZM155.688 444.93L155.189 445.796C157.775 447.286 159.791 449.387 161.246 452.12L162.128 451.65L163.011 451.18C161.386 448.127 159.109 445.747 156.188 444.064L155.688 444.93ZM162.128 451.65L161.255 452.137C162.745 454.811 163.508 457.974 163.508 461.66H164.508H165.508C165.508 457.693 164.685 454.183 163.002 451.163L162.128 451.65ZM164.508 461.66H163.508C163.508 461.887 163.489 462.171 163.446 462.516L164.438 462.64L165.431 462.764C165.481 462.363 165.508 461.993 165.508 461.66H164.508ZM164.438 462.64H163.438C163.438 462.972 163.418 463.274 163.378 463.549L164.368 463.69L165.358 463.831C165.413 463.452 165.438 463.055 165.438 462.64H164.438ZM164.368 463.69V462.69H132.798V463.69V464.69H164.368V463.69ZM132.798 463.69H133.798V458.86H132.798H131.798V463.69H132.798ZM132.798 458.86V459.86H160.868V458.86V457.86H132.798V458.86ZM160.868 458.86L160.344 458.008L157.614 459.688L158.138 460.54L158.662 461.392L161.393 459.712L160.868 458.86ZM158.138 460.54L159.138 460.56C159.188 458.026 158.665 455.726 157.545 453.688L156.668 454.17L155.792 454.652C156.725 456.348 157.182 458.294 157.139 460.52L158.138 460.54ZM156.668 454.17L157.545 453.688C156.43 451.662 154.875 450.079 152.89 448.959L152.398 449.83L151.907 450.701C153.562 451.634 154.853 452.945 155.792 454.652L156.668 454.17ZM152.398 449.83L152.916 448.974C150.965 447.793 148.703 447.22 146.168 447.22V448.22V449.22C148.393 449.22 150.285 449.72 151.881 450.685L152.398 449.83ZM146.168 448.22V447.22C143.676 447.22 141.42 447.795 139.43 448.969L139.938 449.83L140.446 450.691C142.097 449.718 143.995 449.22 146.168 449.22V448.22ZM139.938 449.83L139.447 448.959C137.455 450.083 135.9 451.694 134.787 453.767L135.668 454.24L136.55 454.713C137.49 452.96 138.781 451.631 140.43 450.701L139.938 449.83ZM135.668 454.24L134.792 453.758C133.674 455.792 133.128 458.109 133.128 460.68H134.128H135.128C135.128 458.398 135.61 456.421 136.545 454.722L135.668 454.24ZM134.128 460.68H133.128V461.8H134.128H135.128V460.68H134.128ZM134.128 461.8H133.128C133.128 464.43 133.726 466.821 134.94 468.946L135.808 468.45L136.677 467.954C135.651 466.159 135.128 464.116 135.128 461.8H134.128ZM135.808 468.45L134.955 468.971C136.219 471.044 137.967 472.662 140.175 473.816L140.638 472.93L141.102 472.044C139.204 471.052 137.731 469.682 136.662 467.929L135.808 468.45ZM140.638 472.93L140.175 473.816C142.391 474.975 144.911 475.54 147.708 475.54V474.54V473.54C145.186 473.54 142.992 473.032 141.102 472.044L140.638 472.93ZM147.708 474.54V475.54C150.016 475.54 152.134 475.147 154.046 474.342L153.658 473.42L153.27 472.498C151.636 473.187 149.787 473.54 147.708 473.54V474.54ZM153.658 473.42L154.038 474.345C155.999 473.541 157.709 472.332 159.159 470.732L158.418 470.06L157.677 469.388C156.422 470.774 154.958 471.806 153.279 472.495L153.658 473.42ZM158.418 470.06L157.658 470.71L161.368 475.05L162.128 474.4L162.889 473.75L159.179 469.41L158.418 470.06ZM162.128 474.4L161.369 473.749C159.798 475.582 157.832 476.984 155.451 477.954L155.828 478.88L156.206 479.806C158.865 478.723 161.098 477.138 162.888 475.051L162.128 474.4ZM155.828 478.88L155.445 477.956C153.11 478.926 150.466 479.42 147.498 479.42V480.42V481.42C150.69 481.42 153.6 480.888 156.212 479.804L155.828 478.88ZM207.51 478.04L207.017 478.91L207.023 478.913L207.51 478.04ZM200.86 471.39L201.727 470.892L200.86 471.39ZM200.86 451.58L201.724 452.084L201.727 452.078L200.86 451.58ZM207.51 444.93L207.023 444.056L207.017 444.06L207.51 444.93ZM225.64 444.65L225.154 445.524V445.524L225.64 444.65ZM231.66 450.95L230.777 451.421L230.784 451.432L231.66 450.95ZM231.73 471.95L230.847 471.479L230.841 471.491L231.73 471.95ZM225.78 478.32L226.265 479.194L226.278 479.187L225.78 478.32ZM224.03 472.93L223.54 472.058L223.531 472.063L224.03 472.93ZM228.51 468.38L227.637 467.893L227.633 467.9L228.51 468.38ZM228.51 454.59L227.633 455.07L227.639 455.083L227.647 455.095L228.51 454.59ZM224.03 450.04L223.531 450.907L223.54 450.912L224.03 450.04ZM206.88 454.59L207.743 455.095L207.748 455.086L206.88 454.59ZM206.88 468.38L206.006 468.867L206.011 468.876L206.88 468.38ZM211.36 472.93L210.861 473.797L211.36 472.93ZM230.4 480H229.4V481H230.4V480ZM230.4 469.99L229.401 469.941L229.4 469.966V469.99H230.4ZM230.82 461.38L231.819 461.429L231.822 461.364L231.816 461.299L230.82 461.38ZM230.12 452.77H229.12V452.811L229.123 452.851L230.12 452.77ZM230.12 428.06V427.06H229.12V428.06H230.12ZM236.84 428.06H237.84V427.06H236.84V428.06ZM236.84 480V481H237.84V480H236.84ZM217.17 480.42V479.42C213.729 479.42 210.68 478.662 207.997 477.167L207.51 478.04L207.023 478.913C210.033 480.591 213.424 481.42 217.17 481.42V480.42ZM207.51 478.04L208.003 477.17C205.362 475.673 203.273 473.587 201.727 470.892L200.86 471.39L199.992 471.888C201.713 474.887 204.058 477.233 207.017 478.91L207.51 478.04ZM200.86 471.39L201.727 470.892C200.193 468.219 199.41 465.082 199.41 461.45H198.41H197.41C197.41 465.378 198.26 468.868 199.992 471.888L200.86 471.39ZM198.41 461.45H199.41C199.41 457.817 200.193 454.707 201.724 452.084L200.86 451.58L199.996 451.076C198.26 454.053 197.41 457.523 197.41 461.45H198.41ZM200.86 451.58L201.727 452.078C203.273 449.383 205.362 447.297 208.003 445.8L207.51 444.93L207.017 444.06C204.058 445.737 201.713 448.083 199.992 451.082L200.86 451.58ZM207.51 444.93L207.997 445.803C210.68 444.308 213.729 443.55 217.17 443.55V442.55V441.55C213.424 441.55 210.033 442.379 207.023 444.057L207.51 444.93ZM217.17 442.55V443.55C220.141 443.55 222.795 444.214 225.154 445.524L225.64 444.65L226.125 443.776C223.444 442.286 220.452 441.55 217.17 441.55V442.55ZM225.64 444.65L225.154 445.524C227.489 446.821 229.365 448.773 230.777 451.421L231.66 450.95L232.542 450.479C230.968 447.527 228.83 445.279 226.125 443.776L225.64 444.65ZM231.66 450.95L230.784 451.432C232.221 454.045 232.97 457.367 232.97 461.45H233.97H234.97C234.97 457.133 234.179 453.455 232.536 450.468L231.66 450.95ZM233.97 461.45H232.97C232.97 465.537 232.243 468.863 230.847 471.479L231.73 471.95L232.612 472.421C234.204 469.437 234.97 465.763 234.97 461.45H233.97ZM231.73 471.95L230.841 471.491C229.475 474.135 227.621 476.11 225.282 477.453L225.78 478.32L226.278 479.187C228.978 477.637 231.091 475.365 232.618 472.409L231.73 471.95ZM225.78 478.32L225.294 477.446C222.939 478.754 220.24 479.42 217.17 479.42V480.42V481.42C220.539 481.42 223.58 480.686 226.265 479.194L225.78 478.32ZM217.73 474.54V475.54C220.223 475.54 222.497 474.965 224.528 473.797L224.03 472.93L223.531 472.063C221.829 473.042 219.903 473.54 217.73 473.54V474.54ZM224.03 472.93L224.519 473.802C226.599 472.635 228.225 470.981 229.387 468.86L228.51 468.38L227.633 467.9C226.648 469.699 225.287 471.078 223.54 472.058L224.03 472.93ZM228.51 468.38L229.383 468.867C230.597 466.692 231.19 464.21 231.19 461.45H230.19H229.19C229.19 463.916 228.663 466.054 227.637 467.893L228.51 468.38ZM230.19 461.45H231.19C231.19 458.648 230.599 456.179 229.373 454.085L228.51 454.59L227.647 455.095C228.661 456.827 229.19 458.932 229.19 461.45H230.19ZM228.51 454.59L229.387 454.11C228.225 451.989 226.599 450.335 224.519 449.168L224.03 450.04L223.54 450.912C225.287 451.892 226.648 453.271 227.633 455.07L228.51 454.59ZM224.03 450.04L224.528 449.173C222.497 448.005 220.223 447.43 217.73 447.43V448.43V449.43C219.903 449.43 221.829 449.928 223.531 450.907L224.03 450.04ZM217.73 448.43V447.43C215.194 447.43 212.895 448.004 210.861 449.173L211.36 450.04L211.858 450.907C213.558 449.93 215.506 449.43 217.73 449.43V448.43ZM211.36 450.04L210.861 449.173C208.833 450.339 207.215 451.987 206.011 454.094L206.88 454.59L207.748 455.086C208.784 453.273 210.153 451.887 211.858 450.907L211.36 450.04ZM206.88 454.59L206.017 454.085C204.791 456.179 204.2 458.648 204.2 461.45H205.2H206.2C206.2 458.932 206.729 456.827 207.743 455.095L206.88 454.59ZM205.2 461.45H204.2C204.2 464.21 204.793 466.692 206.007 468.867L206.88 468.38L207.753 467.893C206.727 466.054 206.2 463.916 206.2 461.45H205.2ZM206.88 468.38L206.011 468.876C207.215 470.983 208.833 472.631 210.861 473.797L211.36 472.93L211.858 472.063C210.153 471.083 208.784 469.697 207.748 467.884L206.88 468.38ZM211.36 472.93L210.861 473.797C212.895 474.966 215.194 475.54 217.73 475.54V474.54V473.54C215.506 473.54 213.558 473.04 211.858 472.063L211.36 472.93ZM230.4 480H231.4V469.99H230.4H229.4V480H230.4ZM230.4 469.99L231.399 470.039L231.819 461.429L230.82 461.38L229.821 461.331L229.401 469.941L230.4 469.99ZM230.82 461.38L231.816 461.299L231.116 452.689L230.12 452.77L229.123 452.851L229.823 461.461L230.82 461.38ZM230.12 452.77H231.12V428.06H230.12H229.12V452.77H230.12ZM230.12 428.06V429.06H236.84V428.06V427.06H230.12V428.06ZM236.84 428.06H235.84V480H236.84H237.84V428.06H236.84ZM236.84 480V479H230.4V480V481H236.84V480ZM277.555 480H276.555V481H277.555V480ZM277.555 442.9V441.9H276.555V442.9H277.555ZM284.275 442.9H285.275V441.9H284.275V442.9ZM284.275 480V481H285.275V480H284.275ZM277.625 434.5L276.917 435.207L276.927 435.217L276.937 435.226L277.625 434.5ZM277.625 428.27L276.937 427.544L276.927 427.553L276.917 427.563L277.625 428.27ZM284.135 428.27L283.427 428.977L283.447 428.997L283.468 429.015L284.135 428.27ZM284.205 434.5L284.912 435.207L284.921 435.198L284.931 435.188L284.205 434.5ZM277.555 480H278.555V442.9H277.555H276.555V480H277.555ZM277.555 442.9V443.9H284.275V442.9V441.9H277.555V442.9ZM284.275 442.9H283.275V480H284.275H285.275V442.9H284.275ZM284.275 480V479H277.555V480V481H284.275V480ZM280.915 435.76V434.76C279.844 434.76 278.999 434.425 278.312 433.774L277.625 434.5L276.937 435.226C278.023 436.255 279.372 436.76 280.915 436.76V435.76ZM277.625 434.5L278.332 433.793C277.684 433.145 277.365 432.374 277.365 431.42H276.365H275.365C275.365 432.892 275.885 434.175 276.917 435.207L277.625 434.5ZM276.365 431.42H277.365C277.365 430.407 277.691 429.617 278.332 428.977L277.625 428.27L276.917 427.563C275.878 428.603 275.365 429.913 275.365 431.42H276.365ZM277.625 428.27L278.312 428.996C278.999 428.345 279.844 428.01 280.915 428.01V427.01V426.01C279.372 426.01 278.023 426.515 276.937 427.544L277.625 428.27ZM280.915 427.01V428.01C281.985 428.01 282.795 428.344 283.427 428.977L284.135 428.27L284.842 427.563C283.794 426.516 282.457 426.01 280.915 426.01V427.01ZM284.135 428.27L283.468 429.015C284.138 429.615 284.465 430.345 284.465 431.28H285.465H286.465C286.465 429.789 285.905 428.512 284.801 427.525L284.135 428.27ZM285.465 431.28H284.465C284.465 432.293 284.137 433.118 283.479 433.812L284.205 434.5L284.931 435.188C285.953 434.109 286.465 432.787 286.465 431.28H285.465ZM284.205 434.5L283.497 433.793C282.872 434.419 282.043 434.76 280.915 434.76V435.76V436.76C282.493 436.76 283.858 436.261 284.912 435.207L284.205 434.5ZM329.165 477.41L328.466 478.125V478.125L329.165 477.41ZM326.085 434.78V433.78H325.085V434.78H326.085ZM332.805 434.78H333.805V433.78H332.805V434.78ZM334.275 473.14L333.537 473.814L333.545 473.823L333.553 473.831L334.275 473.14ZM343.865 473L344.782 472.601L344.25 471.377L343.225 472.232L343.865 473ZM345.965 477.83L346.619 478.587L347.176 478.106L346.882 477.431L345.965 477.83ZM342.255 479.79L341.977 478.83L341.968 478.832L342.255 479.79ZM319.785 448.43H318.785V449.43H319.785V448.43ZM319.785 442.9V441.9H318.785V442.9H319.785ZM343.445 442.9H344.445V441.9H343.445V442.9ZM343.445 448.43V449.43H344.445V448.43H343.445ZM337.845 480.42V479.42C334.292 479.42 331.68 478.469 329.864 476.695L329.165 477.41L328.466 478.125C330.758 480.364 333.932 481.42 337.845 481.42V480.42ZM329.165 477.41L329.864 476.695C328.057 474.928 327.085 472.349 327.085 468.8H326.085H325.085C325.085 472.718 326.167 475.878 328.466 478.125L329.165 477.41ZM326.085 468.8H327.085V434.78H326.085H325.085V468.8H326.085ZM326.085 434.78V435.78H332.805V434.78V433.78H326.085V434.78ZM332.805 434.78H331.805V468.52H332.805H333.805V434.78H332.805ZM332.805 468.52H331.805C331.805 470.681 332.334 472.497 333.537 473.814L334.275 473.14L335.014 472.466C334.257 471.637 333.805 470.373 333.805 468.52H332.805ZM334.275 473.14L333.553 473.831C334.814 475.15 336.55 475.75 338.615 475.75V474.75V473.75C336.947 473.75 335.79 473.277 334.998 472.449L334.275 473.14ZM338.615 474.75V475.75C340.912 475.75 342.899 475.107 344.506 473.768L343.865 473L343.225 472.232C342.032 473.226 340.519 473.75 338.615 473.75V474.75ZM343.865 473L342.948 473.399L345.048 478.229L345.965 477.83L346.882 477.431L344.782 472.601L343.865 473ZM345.965 477.83L345.312 477.073C344.405 477.856 343.3 478.445 341.977 478.83L342.255 479.79L342.534 480.75C344.104 480.295 345.472 479.577 346.619 478.587L345.965 477.83ZM342.255 479.79L341.968 478.832C340.666 479.223 339.293 479.42 337.845 479.42V480.42V481.42C339.477 481.42 341.045 481.197 342.543 480.748L342.255 479.79ZM319.785 448.43H320.785V442.9H319.785H318.785V448.43H319.785ZM319.785 442.9V443.9H343.445V442.9V441.9H319.785V442.9ZM343.445 442.9H342.445V448.43H343.445H344.445V442.9H343.445ZM343.445 448.43V447.43H319.785V448.43V449.43H343.445V448.43ZM386.809 477.97L387.301 477.099V477.099L386.809 477.97ZM379.949 471.25L379.084 471.752L379.088 471.758L379.949 471.25ZM379.949 451.65L379.088 451.142V451.142L379.949 451.65ZM386.809 445L387.29 445.877L387.301 445.871L386.809 445ZM406.619 445L406.128 445.871L406.136 445.876L406.144 445.88L406.619 445ZM413.479 451.65L412.612 452.148L412.617 452.156L412.622 452.164L413.479 451.65ZM413.479 471.25L412.618 470.742L412.612 470.752L413.479 471.25ZM406.619 477.97L406.134 477.096L406.128 477.099L406.619 477.97ZM403.119 472.93L402.63 472.058L402.621 472.063L403.119 472.93ZM407.599 468.38L408.476 468.86L408.481 468.852L407.599 468.38ZM407.599 454.59L406.722 455.07L406.727 455.079L407.599 454.59ZM403.119 450.04L402.621 450.907L402.63 450.912L403.119 450.04ZM385.899 454.59L386.762 455.095L386.767 455.086L385.899 454.59ZM385.899 468.38L385.026 468.867L385.031 468.876L385.899 468.38ZM390.379 472.93L389.881 473.797L390.379 472.93ZM396.749 480.42V479.42C393.166 479.42 390.026 478.638 387.301 477.099L386.809 477.97L386.318 478.841C389.379 480.569 392.865 481.42 396.749 481.42V480.42ZM386.809 477.97L387.301 477.099C384.56 475.552 382.401 473.436 380.81 470.742L379.949 471.25L379.088 471.758C380.858 474.757 383.272 477.122 386.318 478.841L386.809 477.97ZM379.949 471.25L380.814 470.748C379.23 468.02 378.429 464.93 378.429 461.45H377.429H376.429C376.429 465.25 377.308 468.693 379.084 471.752L379.949 471.25ZM377.429 461.45H378.429C378.429 457.921 379.232 454.834 380.81 452.158L379.949 451.65L379.088 451.142C377.307 454.16 376.429 457.606 376.429 461.45H377.429ZM379.949 451.65L380.81 452.158C382.399 449.466 384.555 447.377 387.29 445.877L386.809 445L386.328 444.123C383.277 445.796 380.859 448.141 379.088 451.142L379.949 451.65ZM386.809 445L387.301 445.871C390.026 444.332 393.166 443.55 396.749 443.55V442.55V441.55C392.865 441.55 389.379 442.401 386.318 444.129L386.809 445ZM396.749 442.55V443.55C400.283 443.55 403.4 444.331 406.128 445.871L406.619 445L407.111 444.129C404.052 442.402 400.589 441.55 396.749 441.55V442.55ZM406.619 445L406.144 445.88C408.924 447.38 411.073 449.466 412.612 452.148L413.479 451.65L414.347 451.152C412.619 448.141 410.195 445.793 407.094 444.12L406.619 445ZM413.479 451.65L412.622 452.164C414.196 454.788 414.999 457.871 414.999 461.45H415.999H416.999C416.999 457.562 416.123 454.112 414.337 451.136L413.479 451.65ZM415.999 461.45H414.999C414.999 464.979 414.197 468.066 412.618 470.742L413.479 471.25L414.34 471.758C416.122 468.74 416.999 465.294 416.999 461.45H415.999ZM413.479 471.25L412.612 470.752C411.072 473.437 408.919 475.549 406.134 477.096L406.619 477.97L407.105 478.844C410.2 477.125 412.62 474.756 414.347 471.748L413.479 471.25ZM406.619 477.97L406.128 477.099C403.4 478.639 400.283 479.42 396.749 479.42V480.42V481.42C400.589 481.42 404.052 480.568 407.111 478.841L406.619 477.97ZM396.749 474.54V475.54C399.285 475.54 401.584 474.966 403.618 473.797L403.119 472.93L402.621 472.063C400.921 473.04 398.973 473.54 396.749 473.54V474.54ZM403.119 472.93L403.609 473.802C405.688 472.635 407.315 470.981 408.476 468.86L407.599 468.38L406.722 467.9C405.737 469.699 404.377 471.078 402.63 472.058L403.119 472.93ZM407.599 468.38L408.481 468.852C409.643 466.68 410.209 464.203 410.209 461.45H409.209H408.209C408.209 463.923 407.702 466.067 406.717 467.908L407.599 468.38ZM409.209 461.45H410.209C410.209 458.655 409.645 456.192 408.471 454.101L407.599 454.59L406.727 455.079C407.701 456.814 408.209 458.925 408.209 461.45H409.209ZM407.599 454.59L408.476 454.11C407.315 451.989 405.688 450.335 403.609 449.168L403.119 450.04L402.63 450.912C404.377 451.892 405.737 453.271 406.722 455.07L407.599 454.59ZM403.119 450.04L403.618 449.173C401.584 448.004 399.285 447.43 396.749 447.43V448.43V449.43C398.973 449.43 400.921 449.93 402.621 450.907L403.119 450.04ZM396.749 448.43V447.43C394.213 447.43 391.915 448.004 389.881 449.173L390.379 450.04L390.878 450.907C392.577 449.93 394.525 449.43 396.749 449.43V448.43ZM390.379 450.04L389.881 449.173C387.853 450.339 386.235 451.987 385.031 454.094L385.899 454.59L386.767 455.086C387.804 453.273 389.173 451.887 390.878 450.907L390.379 450.04ZM385.899 454.59L385.036 454.085C383.81 456.179 383.219 458.648 383.219 461.45H384.219H385.219C385.219 458.932 385.748 456.827 386.762 455.095L385.899 454.59ZM384.219 461.45H383.219C383.219 464.21 383.812 466.692 385.026 468.867L385.899 468.38L386.772 467.893C385.746 466.054 385.219 463.916 385.219 461.45H384.219ZM385.899 468.38L385.031 468.876C386.235 470.983 387.853 472.631 389.881 473.797L390.379 472.93L390.878 472.063C389.173 471.083 387.804 469.697 386.767 467.884L385.899 468.38ZM390.379 472.93L389.881 473.797C391.915 474.966 394.213 475.54 396.749 475.54V474.54V473.54C394.525 473.54 392.577 473.04 390.878 472.063L390.379 472.93ZM453.293 480H452.293V481H453.293V480ZM453.293 442.9V441.9H452.293V442.9H453.293ZM459.733 442.9H460.733V441.9H459.733V442.9ZM459.733 452.98L458.763 453.223L460.733 452.98H459.733ZM459.103 450.46L458.174 450.089L458.054 450.389L458.133 450.703L459.103 450.46ZM464.283 444.58L463.796 443.707V443.707L464.283 444.58ZM473.243 442.55H474.243V441.55H473.243V442.55ZM473.243 449.06L473.078 450.046L474.243 450.24V449.06H473.243ZM460.013 480V481H461.013V480H460.013ZM453.293 480H454.293V442.9H453.293H452.293V480H453.293ZM453.293 442.9V443.9H459.733V442.9V441.9H453.293V442.9ZM459.733 442.9H458.733V452.98H459.733H460.733V442.9H459.733ZM459.733 452.98L460.703 452.737L460.073 450.217L459.103 450.46L458.133 450.703L458.763 453.223L459.733 452.98ZM459.103 450.46L460.031 450.831C460.972 448.479 462.542 446.696 464.77 445.453L464.283 444.58L463.796 443.707C461.17 445.171 459.287 447.308 458.174 450.089L459.103 450.46ZM464.283 444.58L464.77 445.453C467.012 444.203 469.821 443.55 473.243 443.55V442.55V441.55C469.572 441.55 466.407 442.25 463.796 443.707L464.283 444.58ZM473.243 442.55H472.243V449.06H473.243H474.243V442.55H473.243ZM473.243 449.06L473.407 448.074C473.074 448.018 472.739 447.99 472.403 447.99V448.99V449.99C472.627 449.99 472.852 450.009 473.078 450.046L473.243 449.06ZM472.403 448.99V447.99C472.402 447.99 472.402 447.99 472.401 447.99C472.401 447.99 472.401 447.99 472.4 447.99C472.4 447.99 472.399 447.99 472.399 447.99C472.398 447.99 472.398 447.99 472.397 447.99C472.397 447.99 472.396 447.99 472.396 447.99C472.396 447.99 472.395 447.99 472.395 447.99C472.394 447.99 472.394 447.99 472.393 447.99C472.393 447.99 472.392 447.99 472.392 447.99C472.391 447.99 472.391 447.99 472.391 447.99C472.39 447.99 472.39 447.99 472.389 447.99C472.389 447.99 472.388 447.99 472.388 447.99C472.387 447.99 472.387 447.99 472.386 447.99C472.386 447.99 472.386 447.99 472.385 447.99C472.385 447.99 472.384 447.99 472.384 447.99C472.383 447.99 472.383 447.99 472.382 447.99C472.382 447.99 472.381 447.99 472.381 447.99C472.381 447.99 472.38 447.99 472.38 447.99C472.379 447.99 472.379 447.99 472.378 447.99C472.378 447.99 472.377 447.99 472.377 447.99C472.376 447.99 472.376 447.99 472.376 447.99C472.375 447.99 472.375 447.99 472.374 447.99C472.374 447.99 472.373 447.99 472.373 447.99C472.372 447.99 472.372 447.99 472.371 447.99C472.371 447.99 472.37 447.99 472.37 447.99C472.37 447.99 472.369 447.99 472.369 447.99C472.368 447.99 472.368 447.99 472.367 447.99C472.367 447.99 472.366 447.99 472.366 447.99C472.365 447.99 472.365 447.99 472.365 447.99C472.364 447.99 472.364 447.99 472.363 447.99C472.363 447.99 472.362 447.99 472.362 447.99C472.361 447.99 472.361 447.99 472.36 447.99C472.36 447.99 472.36 447.99 472.359 447.99C472.359 447.99 472.358 447.99 472.358 447.99C472.357 447.99 472.357 447.99 472.356 447.99C472.356 447.99 472.355 447.99 472.355 447.99C472.355 447.99 472.354 447.99 472.354 447.99C472.353 447.99 472.353 447.99 472.352 447.99C472.352 447.99 472.351 447.99 472.351 447.99C472.35 447.99 472.35 447.99 472.35 447.99C472.349 447.99 472.349 447.99 472.348 447.99C472.348 447.99 472.347 447.99 472.347 447.99C472.346 447.99 472.346 447.99 472.345 447.99C472.345 447.99 472.345 447.99 472.344 447.99C472.344 447.99 472.343 447.99 472.343 447.99C472.342 447.99 472.342 447.99 472.341 447.99C472.341 447.99 472.34 447.99 472.34 447.99C472.34 447.99 472.339 447.99 472.339 447.99C472.338 447.99 472.338 447.99 472.337 447.99C472.337 447.99 472.336 447.99 472.336 447.99C472.335 447.99 472.335 447.99 472.335 447.99C472.334 447.99 472.334 447.99 472.333 447.99C472.333 447.99 472.332 447.99 472.332 447.99C472.331 447.99 472.331 447.99 472.33 447.99C472.33 447.99 472.329 447.99 472.329 447.99C472.329 447.99 472.328 447.99 472.328 447.99C472.327 447.99 472.327 447.99 472.326 447.99C472.326 447.99 472.325 447.99 472.325 447.99C472.324 447.99 472.324 447.99 472.324 447.99C472.323 447.99 472.323 447.99 472.322 447.99C472.322 447.99 472.321 447.99 472.321 447.99C472.32 447.99 472.32 447.99 472.319 447.99C472.319 447.99 472.319 447.99 472.318 447.99C472.318 447.99 472.317 447.99 472.317 447.99C472.316 447.99 472.316 447.99 472.315 447.99C472.315 447.99 472.314 447.99 472.314 447.99C472.314 447.99 472.313 447.99 472.313 447.99C472.312 447.99 472.312 447.99 472.311 447.99C472.311 447.99 472.31 447.99 472.31 447.99C472.309 447.99 472.309 447.99 472.309 447.99C472.308 447.99 472.308 447.99 472.307 447.99C472.307 447.99 472.306 447.99 472.306 447.99C472.305 447.99 472.305 447.99 472.304 447.99C472.304 447.99 472.303 447.99 472.303 447.99C472.303 447.99 472.302 447.99 472.302 447.99C472.301 447.99 472.301 447.99 472.3 447.99C472.3 447.99 472.299 447.99 472.299 447.99C472.298 447.99 472.298 447.99 472.298 447.99C472.297 447.99 472.297 447.99 472.296 447.99C472.296 447.99 472.295 447.99 472.295 447.99C472.294 447.99 472.294 447.99 472.293 447.99C472.293 447.99 472.293 447.99 472.292 447.99C472.292 447.99 472.291 447.99 472.291 447.99C472.29 447.99 472.29 447.99 472.289 447.99C472.289 447.99 472.288 447.99 472.288 447.99C472.288 447.99 472.287 447.99 472.287 447.99C472.286 447.99 472.286 447.99 472.285 447.99C472.285 447.99 472.284 447.99 472.284 447.99C472.283 447.99 472.283 447.99 472.283 447.99C472.282 447.99 472.282 447.99 472.281 447.99C472.281 447.99 472.28 447.99 472.28 447.99C472.279 447.99 472.279 447.99 472.278 447.99C472.278 447.99 472.278 447.99 472.277 447.99C472.277 447.99 472.276 447.99 472.276 447.99C472.275 447.99 472.275 447.99 472.274 447.99C472.274 447.99 472.273 447.99 472.273 447.99C472.273 447.99 472.272 447.99 472.272 447.99C472.271 447.99 472.271 447.99 472.27 447.99C472.27 447.99 472.269 447.99 472.269 447.99C472.268 447.99 472.268 447.99 472.267 447.99C472.267 447.99 472.267 447.99 472.266 447.99C472.266 447.99 472.265 447.99 472.265 447.99C472.264 447.99 472.264 447.99 472.263 447.99C472.263 447.99 472.262 447.99 472.262 447.99C472.262 447.99 472.261 447.99 472.261 447.99C472.26 447.99 472.26 447.99 472.259 447.99C472.259 447.99 472.258 447.99 472.258 447.99C472.257 447.99 472.257 447.99 472.257 447.99C472.256 447.99 472.256 447.99 472.255 447.99C472.255 447.99 472.254 447.99 472.254 447.99C472.253 447.99 472.253 447.99 472.252 447.99C472.252 447.99 472.252 447.99 472.251 447.99C472.251 447.99 472.25 447.99 472.25 447.99C472.249 447.99 472.249 447.99 472.248 447.99C472.248 447.99 472.247 447.99 472.247 447.99C472.247 447.99 472.246 447.99 472.246 447.99C472.245 447.99 472.245 447.99 472.244 447.99C472.244 447.99 472.243 447.99 472.243 447.99C472.242 447.99 472.242 447.99 472.242 447.99C472.241 447.99 472.241 447.99 472.24 447.99C472.24 447.99 472.239 447.99 472.239 447.99C472.238 447.99 472.238 447.99 472.237 447.99C472.237 447.99 472.237 447.99 472.236 447.99C472.236 447.99 472.235 447.99 472.235 447.99C472.234 447.99 472.234 447.99 472.233 447.99C472.233 447.99 472.232 447.99 472.232 447.99C472.232 447.99 472.231 447.99 472.231 447.99C472.23 447.99 472.23 447.99 472.229 447.99C472.229 447.99 472.228 447.99 472.228 447.99C472.227 447.99 472.227 447.99 472.226 447.99C472.226 447.99 472.226 447.99 472.225 447.99C472.225 447.99 472.224 447.99 472.224 447.99C472.223 447.99 472.223 447.99 472.222 447.99C472.222 447.99 472.221 447.99 472.221 447.99C472.221 447.99 472.22 447.99 472.22 447.99C472.219 447.99 472.219 447.99 472.218 447.99C472.218 447.99 472.217 447.99 472.217 447.99C472.216 447.99 472.216 447.99 472.216 447.99C472.215 447.99 472.215 447.99 472.214 447.99C472.214 447.99 472.213 447.99 472.213 447.99C472.212 447.99 472.212 447.99 472.211 447.99C472.211 447.99 472.211 447.99 472.21 447.99C472.21 447.99 472.209 447.99 472.209 447.99C472.208 447.99 472.208 447.99 472.207 447.99C472.207 447.99 472.206 447.99 472.206 447.99C472.206 447.99 472.205 447.99 472.205 447.99C472.204 447.99 472.204 447.99 472.203 447.99C472.203 447.99 472.202 447.99 472.202 447.99C472.201 447.99 472.201 447.99 472.201 447.99C472.2 447.99 472.2 447.99 472.199 447.99C472.199 447.99 472.198 447.99 472.198 447.99C472.197 447.99 472.197 447.99 472.196 447.99C472.196 447.99 472.195 447.99 472.195 447.99C472.195 447.99 472.194 447.99 472.194 447.99C472.193 447.99 472.193 447.99 472.192 447.99C472.192 447.99 472.191 447.99 472.191 447.99C472.19 447.99 472.19 447.99 472.19 447.99C472.189 447.99 472.189 447.99 472.188 447.99C472.188 447.99 472.187 447.99 472.187 447.99C472.186 447.99 472.186 447.99 472.185 447.99C472.185 447.99 472.185 447.99 472.184 447.99C472.184 447.99 472.183 447.99 472.183 447.99C472.182 447.99 472.182 447.99 472.181 447.99C472.181 447.99 472.18 447.99 472.18 447.99C472.18 447.99 472.179 447.99 472.179 447.99C472.178 447.99 472.178 447.99 472.177 447.99C472.177 447.99 472.176 447.99 472.176 447.99C472.175 447.99 472.175 447.99 472.175 447.99C472.174 447.99 472.174 447.99 472.173 447.99C472.173 447.99 472.172 447.99 472.172 447.99C472.171 447.99 472.171 447.99 472.17 447.99C472.17 447.99 472.17 447.99 472.169 447.99C472.169 447.99 472.168 447.99 472.168 447.99C472.167 447.99 472.167 447.99 472.166 447.99C472.166 447.99 472.165 447.99 472.165 447.99C472.165 447.99 472.164 447.99 472.164 447.99C472.163 447.99 472.163 447.99 472.162 447.99C472.162 447.99 472.161 447.99 472.161 447.99C472.16 447.99 472.16 447.99 472.159 447.99C472.159 447.99 472.159 447.99 472.158 447.99C472.158 447.99 472.157 447.99 472.157 447.99C472.156 447.99 472.156 447.99 472.155 447.99C472.155 447.99 472.154 447.99 472.154 447.99C472.154 447.99 472.153 447.99 472.153 447.99C472.152 447.99 472.152 447.99 472.151 447.99C472.151 447.99 472.15 447.99 472.15 447.99C472.149 447.99 472.149 447.99 472.149 447.99C472.148 447.99 472.148 447.99 472.147 447.99C472.147 447.99 472.146 447.99 472.146 447.99C472.145 447.99 472.145 447.99 472.144 447.99C472.144 447.99 472.144 447.99 472.143 447.99C472.143 447.99 472.142 447.99 472.142 447.99C472.141 447.99 472.141 447.99 472.14 447.99C472.14 447.99 472.139 447.99 472.139 447.99C472.139 447.99 472.138 447.99 472.138 447.99C472.137 447.99 472.137 447.99 472.136 447.99C472.136 447.99 472.135 447.99 472.135 447.99C472.134 447.99 472.134 447.99 472.134 447.99C472.133 447.99 472.133 447.99 472.132 447.99C472.132 447.99 472.131 447.99 472.131 447.99C472.13 447.99 472.13 447.99 472.129 447.99C472.129 447.99 472.129 447.99 472.128 447.99C472.128 447.99 472.127 447.99 472.127 447.99C472.126 447.99 472.126 447.99 472.125 447.99C472.125 447.99 472.124 447.99 472.124 447.99C472.124 447.99 472.123 447.99 472.123 447.99C472.122 447.99 472.122 447.99 472.121 447.99C472.121 447.99 472.12 447.99 472.12 447.99C472.119 447.99 472.119 447.99 472.118 447.99C472.118 447.99 472.118 447.99 472.117 447.99C472.117 447.99 472.116 447.99 472.116 447.99C472.115 447.99 472.115 447.99 472.114 447.99C472.114 447.99 472.113 447.99 472.113 447.99C472.113 447.99 472.112 447.99 472.112 447.99C472.111 447.99 472.111 447.99 472.11 447.99C472.11 447.99 472.109 447.99 472.109 447.99C472.108 447.99 472.108 447.99 472.108 447.99C472.107 447.99 472.107 447.99 472.106 447.99C472.106 447.99 472.105 447.99 472.105 447.99C472.104 447.99 472.104 447.99 472.103 447.99C472.103 447.99 472.103 447.99 472.102 447.99C472.102 447.99 472.101 447.99 472.101 447.99C472.1 447.99 472.1 447.99 472.099 447.99C472.099 447.99 472.098 447.99 472.098 447.99C472.098 447.99 472.097 447.99 472.097 447.99C472.096 447.99 472.096 447.99 472.095 447.99C472.095 447.99 472.094 447.99 472.094 447.99C472.093 447.99 472.093 447.99 472.092 447.99C472.092 447.99 472.092 447.99 472.091 447.99C472.091 447.99 472.09 447.99 472.09 447.99C472.089 447.99 472.089 447.99 472.088 447.99C472.088 447.99 472.087 447.99 472.087 447.99C472.087 447.99 472.086 447.99 472.086 447.99C472.085 447.99 472.085 447.99 472.084 447.99C472.084 447.99 472.083 447.99 472.083 447.99C472.082 447.99 472.082 447.99 472.082 447.99C472.081 447.99 472.081 447.99 472.08 447.99C472.08 447.99 472.079 447.99 472.079 447.99C472.078 447.99 472.078 447.99 472.077 447.99C472.077 447.99 472.077 447.99 472.076 447.99C472.076 447.99 472.075 447.99 472.075 447.99C472.074 447.99 472.074 447.99 472.073 447.99C472.073 447.99 472.072 447.99 472.072 447.99C472.072 447.99 472.071 447.99 472.071 447.99C472.07 447.99 472.07 447.99 472.069 447.99C472.069 447.99 472.068 447.99 472.068 447.99C472.067 447.99 472.067 447.99 472.067 447.99C472.066 447.99 472.066 447.99 472.065 447.99C472.065 447.99 472.064 447.99 472.064 447.99C472.063 447.99 472.063 447.99 472.062 447.99C472.062 447.99 472.062 447.99 472.061 447.99C472.061 447.99 472.06 447.99 472.06 447.99C472.059 447.99 472.059 447.99 472.058 447.99C472.058 447.99 472.057 447.99 472.057 447.99C472.056 447.99 472.056 447.99 472.056 447.99C472.055 447.99 472.055 447.99 472.054 447.99C472.054 447.99 472.053 447.99 472.053 447.99C472.052 447.99 472.052 447.99 472.051 447.99C472.051 447.99 472.051 447.99 472.05 447.99C472.05 447.99 472.049 447.99 472.049 447.99C472.048 447.99 472.048 447.99 472.047 447.99C472.047 447.99 472.046 447.99 472.046 447.99C472.046 447.99 472.045 447.99 472.045 447.99C472.044 447.99 472.044 447.99 472.043 447.99C472.043 447.99 472.042 447.99 472.042 447.99C472.041 447.99 472.041 447.99 472.041 447.99C472.04 447.99 472.04 447.99 472.039 447.99C472.039 447.99 472.038 447.99 472.038 447.99C472.037 447.99 472.037 447.99 472.036 447.99C472.036 447.99 472.036 447.99 472.035 447.99C472.035 447.99 472.034 447.99 472.034 447.99C472.033 447.99 472.033 447.99 472.032 447.99C472.032 447.99 472.031 447.99 472.031 447.99C472.031 447.99 472.03 447.99 472.03 447.99C472.029 447.99 472.029 447.99 472.028 447.99C472.028 447.99 472.027 447.99 472.027 447.99C472.026 447.99 472.026 447.99 472.026 447.99C472.025 447.99 472.025 447.99 472.024 447.99C472.024 447.99 472.023 447.99 472.023 447.99C472.022 447.99 472.022 447.99 472.021 447.99C472.021 447.99 472.021 447.99 472.02 447.99C472.02 447.99 472.019 447.99 472.019 447.99C472.018 447.99 472.018 447.99 472.017 447.99C472.017 447.99 472.016 447.99 472.016 447.99C472.015 447.99 472.015 447.99 472.015 447.99C472.014 447.99 472.014 447.99 472.013 447.99C472.013 447.99 472.012 447.99 472.012 447.99C472.011 447.99 472.011 447.99 472.01 447.99C472.01 447.99 472.01 447.99 472.009 447.99C472.009 447.99 472.008 447.99 472.008 447.99C472.007 447.99 472.007 447.99 472.006 447.99C472.006 447.99 472.005 447.99 472.005 447.99C472.005 447.99 472.004 447.99 472.004 447.99C472.003 447.99 472.003 447.99 472.002 447.99C472.002 447.99 472.001 447.99 472.001 447.99C472 447.99 472 447.99 472 447.99C471.999 447.99 471.999 447.99 471.998 447.99C471.998 447.99 471.997 447.99 471.997 447.99C471.996 447.99 471.996 447.99 471.995 447.99C471.995 447.99 471.995 447.99 471.994 447.99C471.994 447.99 471.993 447.99 471.993 447.99C471.992 447.99 471.992 447.99 471.991 447.99C471.991 447.99 471.99 447.99 471.99 447.99C471.99 447.99 471.989 447.99 471.989 447.99C471.988 447.99 471.988 447.99 471.987 447.99C471.987 447.99 471.986 447.99 471.986 447.99C471.985 447.99 471.985 447.99 471.984 447.99C471.984 447.99 471.984 447.99 471.983 447.99C471.983 447.99 471.982 447.99 471.982 447.99C471.981 447.99 471.981 447.99 471.98 447.99C471.98 447.99 471.979 447.99 471.979 447.99C471.979 447.99 471.978 447.99 471.978 447.99C471.977 447.99 471.977 447.99 471.976 447.99C471.976 447.99 471.975 447.99 471.975 447.99C471.974 447.99 471.974 447.99 471.974 447.99C471.973 447.99 471.973 447.99 471.972 447.99C471.972 447.99 471.971 447.99 471.971 447.99C471.97 447.99 471.97 447.99 471.969 447.99C471.969 447.99 471.969 447.99 471.968 447.99C471.968 447.99 471.967 447.99 471.967 447.99C471.966 447.99 471.966 447.99 471.965 447.99C471.965 447.99 471.964 447.99 471.964 447.99C471.964 447.99 471.963 447.99 471.963 447.99C471.962 447.99 471.962 447.99 471.961 447.99C471.961 447.99 471.96 447.99 471.96 447.99C471.959 447.99 471.959 447.99 471.959 447.99C471.958 447.99 471.958 447.99 471.957 447.99C471.957 447.99 471.956 447.99 471.956 447.99C471.955 447.99 471.955 447.99 471.954 447.99C471.954 447.99 471.953 447.99 471.953 447.99C471.953 447.99 471.952 447.99 471.952 447.99C471.951 447.99 471.951 447.99 471.95 447.99C471.95 447.99 471.949 447.99 471.949 447.99C471.948 447.99 471.948 447.99 471.948 447.99C471.947 447.99 471.947 447.99 471.946 447.99C471.946 447.99 471.945 447.99 471.945 447.99C471.944 447.99 471.944 447.99 471.943 447.99C471.943 447.99 471.943 447.99 471.942 447.99C471.942 447.99 471.941 447.99 471.941 447.99C471.94 447.99 471.94 447.99 471.939 447.99C471.939 447.99 471.938 447.99 471.938 447.99C471.938 447.99 471.937 447.99 471.937 447.99C471.936 447.99 471.936 447.99 471.935 447.99C471.935 447.99 471.934 447.99 471.934 447.99C471.933 447.99 471.933 447.99 471.933 447.99C471.932 447.99 471.932 447.99 471.931 447.99C471.931 447.99 471.93 447.99 471.93 447.99C471.929 447.99 471.929 447.99 471.928 447.99C471.928 447.99 471.928 447.99 471.927 447.99C471.927 447.99 471.926 447.99 471.926 447.99C471.925 447.99 471.925 447.99 471.924 447.99C471.924 447.99 471.923 447.99 471.923 447.99C471.923 447.99 471.922 447.99 471.922 447.99C471.921 447.99 471.921 447.99 471.92 447.99C471.92 447.99 471.919 447.99 471.919 447.99C471.918 447.99 471.918 447.99 471.918 447.99C471.917 447.99 471.917 447.99 471.916 447.99C471.916 447.99 471.915 447.99 471.915 447.99C471.914 447.99 471.914 447.99 471.913 447.99C471.913 447.99 471.912 447.99 471.912 447.99C471.912 447.99 471.911 447.99 471.911 447.99C471.91 447.99 471.91 447.99 471.909 447.99C471.909 447.99 471.908 447.99 471.908 447.99C471.907 447.99 471.907 447.99 471.907 447.99C471.906 447.99 471.906 447.99 471.905 447.99C471.905 447.99 471.904 447.99 471.904 447.99C471.903 447.99 471.903 447.99 471.902 447.99C471.902 447.99 471.902 447.99 471.901 447.99C471.901 447.99 471.9 447.99 471.9 447.99C471.899 447.99 471.899 447.99 471.898 447.99C471.898 447.99 471.897 447.99 471.897 447.99C471.897 447.99 471.896 447.99 471.896 447.99C471.895 447.99 471.895 447.99 471.894 447.99C471.894 447.99 471.893 447.99 471.893 447.99C471.892 447.99 471.892 447.99 471.892 447.99C471.891 447.99 471.891 447.99 471.89 447.99C471.89 447.99 471.889 447.99 471.889 447.99C471.888 447.99 471.888 447.99 471.887 447.99C471.887 447.99 471.887 447.99 471.886 447.99C471.886 447.99 471.885 447.99 471.885 447.99C471.884 447.99 471.884 447.99 471.883 447.99C471.883 447.99 471.882 447.99 471.882 447.99C471.882 447.99 471.881 447.99 471.881 447.99C471.88 447.99 471.88 447.99 471.879 447.99C471.879 447.99 471.878 447.99 471.878 447.99C471.877 447.99 471.877 447.99 471.876 447.99C471.876 447.99 471.876 447.99 471.875 447.99C471.875 447.99 471.874 447.99 471.874 447.99C471.873 447.99 471.873 447.99 471.872 447.99C471.872 447.99 471.871 447.99 471.871 447.99C471.871 447.99 471.87 447.99 471.87 447.99C471.869 447.99 471.869 447.99 471.868 447.99C471.868 447.99 471.867 447.99 471.867 447.99C471.866 447.99 471.866 447.99 471.866 447.99C471.865 447.99 471.865 447.99 471.864 447.99C471.864 447.99 471.863 447.99 471.863 447.99C471.862 447.99 471.862 447.99 471.861 447.99C471.861 447.99 471.861 447.99 471.86 447.99C471.86 447.99 471.859 447.99 471.859 447.99C471.858 447.99 471.858 447.99 471.857 447.99C471.857 447.99 471.856 447.99 471.856 447.99C471.856 447.99 471.855 447.99 471.855 447.99C471.854 447.99 471.854 447.99 471.853 447.99C471.853 447.99 471.852 447.99 471.852 447.99C471.851 447.99 471.851 447.99 471.85 447.99C471.85 447.99 471.85 447.99 471.849 447.99C471.849 447.99 471.848 447.99 471.848 447.99C471.847 447.99 471.847 447.99 471.846 447.99C471.846 447.99 471.845 447.99 471.845 447.99C471.845 447.99 471.844 447.99 471.844 447.99C471.843 447.99 471.843 447.99 471.842 447.99C471.842 447.99 471.841 447.99 471.841 447.99C471.84 447.99 471.84 447.99 471.84 447.99C471.839 447.99 471.839 447.99 471.838 447.99C471.838 447.99 471.837 447.99 471.837 447.99C471.836 447.99 471.836 447.99 471.835 447.99C471.835 447.99 471.835 447.99 471.834 447.99C471.834 447.99 471.833 447.99 471.833 447.99C471.832 447.99 471.832 447.99 471.831 447.99C471.831 447.99 471.83 447.99 471.83 447.99C471.83 447.99 471.829 447.99 471.829 447.99C471.828 447.99 471.828 447.99 471.827 447.99C471.827 447.99 471.826 447.99 471.826 447.99C471.825 447.99 471.825 447.99 471.825 447.99C471.824 447.99 471.824 447.99 471.823 447.99C471.823 447.99 471.822 447.99 471.822 447.99C471.821 447.99 471.821 447.99 471.82 447.99C471.82 447.99 471.82 447.99 471.819 447.99C471.819 447.99 471.818 447.99 471.818 447.99C471.817 447.99 471.817 447.99 471.816 447.99C471.816 447.99 471.815 447.99 471.815 447.99C471.815 447.99 471.814 447.99 471.814 447.99C471.813 447.99 471.813 447.99 471.812 447.99C471.812 447.99 471.811 447.99 471.811 447.99C471.81 447.99 471.81 447.99 471.809 447.99C471.809 447.99 471.809 447.99 471.808 447.99C471.808 447.99 471.807 447.99 471.807 447.99C471.806 447.99 471.806 447.99 471.805 447.99C471.805 447.99 471.804 447.99 471.804 447.99C471.804 447.99 471.803 447.99 471.803 447.99C471.802 447.99 471.802 447.99 471.801 447.99C471.801 447.99 471.8 447.99 471.8 447.99C471.799 447.99 471.799 447.99 471.799 447.99C471.798 447.99 471.798 447.99 471.797 447.99C471.797 447.99 471.796 447.99 471.796 447.99C471.795 447.99 471.795 447.99 471.794 447.99C471.794 447.99 471.794 447.99 471.793 447.99C471.793 447.99 471.792 447.99 471.792 447.99C471.791 447.99 471.791 447.99 471.79 447.99C471.79 447.99 471.789 447.99 471.789 447.99C471.789 447.99 471.788 447.99 471.788 447.99C471.787 447.99 471.787 447.99 471.786 447.99C471.786 447.99 471.785 447.99 471.785 447.99C471.784 447.99 471.784 447.99 471.784 447.99C471.783 447.99 471.783 447.99 471.782 447.99C471.782 447.99 471.781 447.99 471.781 447.99C471.78 447.99 471.78 447.99 471.779 447.99C471.779 447.99 471.779 447.99 471.778 447.99C471.778 447.99 471.777 447.99 471.777 447.99C471.776 447.99 471.776 447.99 471.775 447.99C471.775 447.99 471.774 447.99 471.774 447.99C471.773 447.99 471.773 447.99 471.773 447.99C471.772 447.99 471.772 447.99 471.771 447.99C471.771 447.99 471.77 447.99 471.77 447.99C471.769 447.99 471.769 447.99 471.768 447.99C471.768 447.99 471.768 447.99 471.767 447.99C471.767 447.99 471.766 447.99 471.766 447.99C471.765 447.99 471.765 447.99 471.764 447.99C471.764 447.99 471.763 447.99 471.763 447.99C471.763 447.99 471.762 447.99 471.762 447.99C471.761 447.99 471.761 447.99 471.76 447.99C471.76 447.99 471.759 447.99 471.759 447.99C471.758 447.99 471.758 447.99 471.758 447.99C471.757 447.99 471.757 447.99 471.756 447.99C471.756 447.99 471.755 447.99 471.755 447.99C471.754 447.99 471.754 447.99 471.753 447.99C471.753 447.99 471.753 447.99 471.752 447.99C471.752 447.99 471.751 447.99 471.751 447.99C471.75 447.99 471.75 447.99 471.749 447.99C471.749 447.99 471.748 447.99 471.748 447.99C471.748 447.99 471.747 447.99 471.747 447.99C471.746 447.99 471.746 447.99 471.745 447.99C471.745 447.99 471.744 447.99 471.744 447.99C471.743 447.99 471.743 447.99 471.742 447.99C471.742 447.99 471.742 447.99 471.741 447.99C471.741 447.99 471.74 447.99 471.74 447.99C471.739 447.99 471.739 447.99 471.738 447.99C471.738 447.99 471.737 447.99 471.737 447.99C471.737 447.99 471.736 447.99 471.736 447.99C471.735 447.99 471.735 447.99 471.734 447.99C471.734 447.99 471.733 447.99 471.733 447.99C471.732 447.99 471.732 447.99 471.732 447.99C471.731 447.99 471.731 447.99 471.73 447.99C471.73 447.99 471.729 447.99 471.729 447.99C471.728 447.99 471.728 447.99 471.727 447.99C471.727 447.99 471.727 447.99 471.726 447.99C471.726 447.99 471.725 447.99 471.725 447.99C471.724 447.99 471.724 447.99 471.723 447.99C471.723 447.99 471.722 447.99 471.722 447.99C471.722 447.99 471.721 447.99 471.721 447.99C471.72 447.99 471.72 447.99 471.719 447.99C471.719 447.99 471.718 447.99 471.718 447.99C471.717 447.99 471.717 447.99 471.717 447.99C471.716 447.99 471.716 447.99 471.715 447.99C471.715 447.99 471.714 447.99 471.714 447.99C471.713 447.99 471.713 447.99 471.712 447.99C471.712 447.99 471.712 447.99 471.711 447.99C471.711 447.99 471.71 447.99 471.71 447.99C471.709 447.99 471.709 447.99 471.708 447.99C471.708 447.99 471.707 447.99 471.707 447.99C471.707 447.99 471.706 447.99 471.706 447.99C471.705 447.99 471.705 447.99 471.704 447.99C471.704 447.99 471.703 447.99 471.703 447.99V448.99V449.99C471.703 449.99 471.704 449.99 471.704 449.99C471.705 449.99 471.705 449.99 471.706 449.99C471.706 449.99 471.707 449.99 471.707 449.99C471.707 449.99 471.708 449.99 471.708 449.99C471.709 449.99 471.709 449.99 471.71 449.99C471.71 449.99 471.711 449.99 471.711 449.99C471.712 449.99 471.712 449.99 471.712 449.99C471.713 449.99 471.713 449.99 471.714 449.99C471.714 449.99 471.715 449.99 471.715 449.99C471.716 449.99 471.716 449.99 471.717 449.99C471.717 449.99 471.717 449.99 471.718 449.99C471.718 449.99 471.719 449.99 471.719 449.99C471.72 449.99 471.72 449.99 471.721 449.99C471.721 449.99 471.722 449.99 471.722 449.99C471.722 449.99 471.723 449.99 471.723 449.99C471.724 449.99 471.724 449.99 471.725 449.99C471.725 449.99 471.726 449.99 471.726 449.99C471.727 449.99 471.727 449.99 471.727 449.99C471.728 449.99 471.728 449.99 471.729 449.99C471.729 449.99 471.73 449.99 471.73 449.99C471.731 449.99 471.731 449.99 471.732 449.99C471.732 449.99 471.732 449.99 471.733 449.99C471.733 449.99 471.734 449.99 471.734 449.99C471.735 449.99 471.735 449.99 471.736 449.99C471.736 449.99 471.737 449.99 471.737 449.99C471.737 449.99 471.738 449.99 471.738 449.99C471.739 449.99 471.739 449.99 471.74 449.99C471.74 449.99 471.741 449.99 471.741 449.99C471.742 449.99 471.742 449.99 471.742 449.99C471.743 449.99 471.743 449.99 471.744 449.99C471.744 449.99 471.745 449.99 471.745 449.99C471.746 449.99 471.746 449.99 471.747 449.99C471.747 449.99 471.748 449.99 471.748 449.99C471.748 449.99 471.749 449.99 471.749 449.99C471.75 449.99 471.75 449.99 471.751 449.99C471.751 449.99 471.752 449.99 471.752 449.99C471.753 449.99 471.753 449.99 471.753 449.99C471.754 449.99 471.754 449.99 471.755 449.99C471.755 449.99 471.756 449.99 471.756 449.99C471.757 449.99 471.757 449.99 471.758 449.99C471.758 449.99 471.758 449.99 471.759 449.99C471.759 449.99 471.76 449.99 471.76 449.99C471.761 449.99 471.761 449.99 471.762 449.99C471.762 449.99 471.763 449.99 471.763 449.99C471.763 449.99 471.764 449.99 471.764 449.99C471.765 449.99 471.765 449.99 471.766 449.99C471.766 449.99 471.767 449.99 471.767 449.99C471.768 449.99 471.768 449.99 471.768 449.99C471.769 449.99 471.769 449.99 471.77 449.99C471.77 449.99 471.771 449.99 471.771 449.99C471.772 449.99 471.772 449.99 471.773 449.99C471.773 449.99 471.773 449.99 471.774 449.99C471.774 449.99 471.775 449.99 471.775 449.99C471.776 449.99 471.776 449.99 471.777 449.99C471.777 449.99 471.778 449.99 471.778 449.99C471.779 449.99 471.779 449.99 471.779 449.99C471.78 449.99 471.78 449.99 471.781 449.99C471.781 449.99 471.782 449.99 471.782 449.99C471.783 449.99 471.783 449.99 471.784 449.99C471.784 449.99 471.784 449.99 471.785 449.99C471.785 449.99 471.786 449.99 471.786 449.99C471.787 449.99 471.787 449.99 471.788 449.99C471.788 449.99 471.789 449.99 471.789 449.99C471.789 449.99 471.79 449.99 471.79 449.99C471.791 449.99 471.791 449.99 471.792 449.99C471.792 449.99 471.793 449.99 471.793 449.99C471.794 449.99 471.794 449.99 471.794 449.99C471.795 449.99 471.795 449.99 471.796 449.99C471.796 449.99 471.797 449.99 471.797 449.99C471.798 449.99 471.798 449.99 471.799 449.99C471.799 449.99 471.799 449.99 471.8 449.99C471.8 449.99 471.801 449.99 471.801 449.99C471.802 449.99 471.802 449.99 471.803 449.99C471.803 449.99 471.804 449.99 471.804 449.99C471.804 449.99 471.805 449.99 471.805 449.99C471.806 449.99 471.806 449.99 471.807 449.99C471.807 449.99 471.808 449.99 471.808 449.99C471.809 449.99 471.809 449.99 471.809 449.99C471.81 449.99 471.81 449.99 471.811 449.99C471.811 449.99 471.812 449.99 471.812 449.99C471.813 449.99 471.813 449.99 471.814 449.99C471.814 449.99 471.815 449.99 471.815 449.99C471.815 449.99 471.816 449.99 471.816 449.99C471.817 449.99 471.817 449.99 471.818 449.99C471.818 449.99 471.819 449.99 471.819 449.99C471.82 449.99 471.82 449.99 471.82 449.99C471.821 449.99 471.821 449.99 471.822 449.99C471.822 449.99 471.823 449.99 471.823 449.99C471.824 449.99 471.824 449.99 471.825 449.99C471.825 449.99 471.825 449.99 471.826 449.99C471.826 449.99 471.827 449.99 471.827 449.99C471.828 449.99 471.828 449.99 471.829 449.99C471.829 449.99 471.83 449.99 471.83 449.99C471.83 449.99 471.831 449.99 471.831 449.99C471.832 449.99 471.832 449.99 471.833 449.99C471.833 449.99 471.834 449.99 471.834 449.99C471.835 449.99 471.835 449.99 471.835 449.99C471.836 449.99 471.836 449.99 471.837 449.99C471.837 449.99 471.838 449.99 471.838 449.99C471.839 449.99 471.839 449.99 471.84 449.99C471.84 449.99 471.84 449.99 471.841 449.99C471.841 449.99 471.842 449.99 471.842 449.99C471.843 449.99 471.843 449.99 471.844 449.99C471.844 449.99 471.845 449.99 471.845 449.99C471.845 449.99 471.846 449.99 471.846 449.99C471.847 449.99 471.847 449.99 471.848 449.99C471.848 449.99 471.849 449.99 471.849 449.99C471.85 449.99 471.85 449.99 471.85 449.99C471.851 449.99 471.851 449.99 471.852 449.99C471.852 449.99 471.853 449.99 471.853 449.99C471.854 449.99 471.854 449.99 471.855 449.99C471.855 449.99 471.856 449.99 471.856 449.99C471.856 449.99 471.857 449.99 471.857 449.99C471.858 449.99 471.858 449.99 471.859 449.99C471.859 449.99 471.86 449.99 471.86 449.99C471.861 449.99 471.861 449.99 471.861 449.99C471.862 449.99 471.862 449.99 471.863 449.99C471.863 449.99 471.864 449.99 471.864 449.99C471.865 449.99 471.865 449.99 471.866 449.99C471.866 449.99 471.866 449.99 471.867 449.99C471.867 449.99 471.868 449.99 471.868 449.99C471.869 449.99 471.869 449.99 471.87 449.99C471.87 449.99 471.871 449.99 471.871 449.99C471.871 449.99 471.872 449.99 471.872 449.99C471.873 449.99 471.873 449.99 471.874 449.99C471.874 449.99 471.875 449.99 471.875 449.99C471.876 449.99 471.876 449.99 471.876 449.99C471.877 449.99 471.877 449.99 471.878 449.99C471.878 449.99 471.879 449.99 471.879 449.99C471.88 449.99 471.88 449.99 471.881 449.99C471.881 449.99 471.882 449.99 471.882 449.99C471.882 449.99 471.883 449.99 471.883 449.99C471.884 449.99 471.884 449.99 471.885 449.99C471.885 449.99 471.886 449.99 471.886 449.99C471.887 449.99 471.887 449.99 471.887 449.99C471.888 449.99 471.888 449.99 471.889 449.99C471.889 449.99 471.89 449.99 471.89 449.99C471.891 449.99 471.891 449.99 471.892 449.99C471.892 449.99 471.892 449.99 471.893 449.99C471.893 449.99 471.894 449.99 471.894 449.99C471.895 449.99 471.895 449.99 471.896 449.99C471.896 449.99 471.897 449.99 471.897 449.99C471.897 449.99 471.898 449.99 471.898 449.99C471.899 449.99 471.899 449.99 471.9 449.99C471.9 449.99 471.901 449.99 471.901 449.99C471.902 449.99 471.902 449.99 471.902 449.99C471.903 449.99 471.903 449.99 471.904 449.99C471.904 449.99 471.905 449.99 471.905 449.99C471.906 449.99 471.906 449.99 471.907 449.99C471.907 449.99 471.907 449.99 471.908 449.99C471.908 449.99 471.909 449.99 471.909 449.99C471.91 449.99 471.91 449.99 471.911 449.99C471.911 449.99 471.912 449.99 471.912 449.99C471.912 449.99 471.913 449.99 471.913 449.99C471.914 449.99 471.914 449.99 471.915 449.99C471.915 449.99 471.916 449.99 471.916 449.99C471.917 449.99 471.917 449.99 471.918 449.99C471.918 449.99 471.918 449.99 471.919 449.99C471.919 449.99 471.92 449.99 471.92 449.99C471.921 449.99 471.921 449.99 471.922 449.99C471.922 449.99 471.923 449.99 471.923 449.99C471.923 449.99 471.924 449.99 471.924 449.99C471.925 449.99 471.925 449.99 471.926 449.99C471.926 449.99 471.927 449.99 471.927 449.99C471.928 449.99 471.928 449.99 471.928 449.99C471.929 449.99 471.929 449.99 471.93 449.99C471.93 449.99 471.931 449.99 471.931 449.99C471.932 449.99 471.932 449.99 471.933 449.99C471.933 449.99 471.933 449.99 471.934 449.99C471.934 449.99 471.935 449.99 471.935 449.99C471.936 449.99 471.936 449.99 471.937 449.99C471.937 449.99 471.938 449.99 471.938 449.99C471.938 449.99 471.939 449.99 471.939 449.99C471.94 449.99 471.94 449.99 471.941 449.99C471.941 449.99 471.942 449.99 471.942 449.99C471.943 449.99 471.943 449.99 471.943 449.99C471.944 449.99 471.944 449.99 471.945 449.99C471.945 449.99 471.946 449.99 471.946 449.99C471.947 449.99 471.947 449.99 471.948 449.99C471.948 449.99 471.948 449.99 471.949 449.99C471.949 449.99 471.95 449.99 471.95 449.99C471.951 449.99 471.951 449.99 471.952 449.99C471.952 449.99 471.953 449.99 471.953 449.99C471.953 449.99 471.954 449.99 471.954 449.99C471.955 449.99 471.955 449.99 471.956 449.99C471.956 449.99 471.957 449.99 471.957 449.99C471.958 449.99 471.958 449.99 471.959 449.99C471.959 449.99 471.959 449.99 471.96 449.99C471.96 449.99 471.961 449.99 471.961 449.99C471.962 449.99 471.962 449.99 471.963 449.99C471.963 449.99 471.964 449.99 471.964 449.99C471.964 449.99 471.965 449.99 471.965 449.99C471.966 449.99 471.966 449.99 471.967 449.99C471.967 449.99 471.968 449.99 471.968 449.99C471.969 449.99 471.969 449.99 471.969 449.99C471.97 449.99 471.97 449.99 471.971 449.99C471.971 449.99 471.972 449.99 471.972 449.99C471.973 449.99 471.973 449.99 471.974 449.99C471.974 449.99 471.974 449.99 471.975 449.99C471.975 449.99 471.976 449.99 471.976 449.99C471.977 449.99 471.977 449.99 471.978 449.99C471.978 449.99 471.979 449.99 471.979 449.99C471.979 449.99 471.98 449.99 471.98 449.99C471.981 449.99 471.981 449.99 471.982 449.99C471.982 449.99 471.983 449.99 471.983 449.99C471.984 449.99 471.984 449.99 471.984 449.99C471.985 449.99 471.985 449.99 471.986 449.99C471.986 449.99 471.987 449.99 471.987 449.99C471.988 449.99 471.988 449.99 471.989 449.99C471.989 449.99 471.99 449.99 471.99 449.99C471.99 449.99 471.991 449.99 471.991 449.99C471.992 449.99 471.992 449.99 471.993 449.99C471.993 449.99 471.994 449.99 471.994 449.99C471.995 449.99 471.995 449.99 471.995 449.99C471.996 449.99 471.996 449.99 471.997 449.99C471.997 449.99 471.998 449.99 471.998 449.99C471.999 449.99 471.999 449.99 472 449.99C472 449.99 472 449.99 472.001 449.99C472.001 449.99 472.002 449.99 472.002 449.99C472.003 449.99 472.003 449.99 472.004 449.99C472.004 449.99 472.005 449.99 472.005 449.99C472.005 449.99 472.006 449.99 472.006 449.99C472.007 449.99 472.007 449.99 472.008 449.99C472.008 449.99 472.009 449.99 472.009 449.99C472.01 449.99 472.01 449.99 472.01 449.99C472.011 449.99 472.011 449.99 472.012 449.99C472.012 449.99 472.013 449.99 472.013 449.99C472.014 449.99 472.014 449.99 472.015 449.99C472.015 449.99 472.015 449.99 472.016 449.99C472.016 449.99 472.017 449.99 472.017 449.99C472.018 449.99 472.018 449.99 472.019 449.99C472.019 449.99 472.02 449.99 472.02 449.99C472.021 449.99 472.021 449.99 472.021 449.99C472.022 449.99 472.022 449.99 472.023 449.99C472.023 449.99 472.024 449.99 472.024 449.99C472.025 449.99 472.025 449.99 472.026 449.99C472.026 449.99 472.026 449.99 472.027 449.99C472.027 449.99 472.028 449.99 472.028 449.99C472.029 449.99 472.029 449.99 472.03 449.99C472.03 449.99 472.031 449.99 472.031 449.99C472.031 449.99 472.032 449.99 472.032 449.99C472.033 449.99 472.033 449.99 472.034 449.99C472.034 449.99 472.035 449.99 472.035 449.99C472.036 449.99 472.036 449.99 472.036 449.99C472.037 449.99 472.037 449.99 472.038 449.99C472.038 449.99 472.039 449.99 472.039 449.99C472.04 449.99 472.04 449.99 472.041 449.99C472.041 449.99 472.041 449.99 472.042 449.99C472.042 449.99 472.043 449.99 472.043 449.99C472.044 449.99 472.044 449.99 472.045 449.99C472.045 449.99 472.046 449.99 472.046 449.99C472.046 449.99 472.047 449.99 472.047 449.99C472.048 449.99 472.048 449.99 472.049 449.99C472.049 449.99 472.05 449.99 472.05 449.99C472.051 449.99 472.051 449.99 472.051 449.99C472.052 449.99 472.052 449.99 472.053 449.99C472.053 449.99 472.054 449.99 472.054 449.99C472.055 449.99 472.055 449.99 472.056 449.99C472.056 449.99 472.056 449.99 472.057 449.99C472.057 449.99 472.058 449.99 472.058 449.99C472.059 449.99 472.059 449.99 472.06 449.99C472.06 449.99 472.061 449.99 472.061 449.99C472.062 449.99 472.062 449.99 472.062 449.99C472.063 449.99 472.063 449.99 472.064 449.99C472.064 449.99 472.065 449.99 472.065 449.99C472.066 449.99 472.066 449.99 472.067 449.99C472.067 449.99 472.067 449.99 472.068 449.99C472.068 449.99 472.069 449.99 472.069 449.99C472.07 449.99 472.07 449.99 472.071 449.99C472.071 449.99 472.072 449.99 472.072 449.99C472.072 449.99 472.073 449.99 472.073 449.99C472.074 449.99 472.074 449.99 472.075 449.99C472.075 449.99 472.076 449.99 472.076 449.99C472.077 449.99 472.077 449.99 472.077 449.99C472.078 449.99 472.078 449.99 472.079 449.99C472.079 449.99 472.08 449.99 472.08 449.99C472.081 449.99 472.081 449.99 472.082 449.99C472.082 449.99 472.082 449.99 472.083 449.99C472.083 449.99 472.084 449.99 472.084 449.99C472.085 449.99 472.085 449.99 472.086 449.99C472.086 449.99 472.087 449.99 472.087 449.99C472.087 449.99 472.088 449.99 472.088 449.99C472.089 449.99 472.089 449.99 472.09 449.99C472.09 449.99 472.091 449.99 472.091 449.99C472.092 449.99 472.092 449.99 472.092 449.99C472.093 449.99 472.093 449.99 472.094 449.99C472.094 449.99 472.095 449.99 472.095 449.99C472.096 449.99 472.096 449.99 472.097 449.99C472.097 449.99 472.098 449.99 472.098 449.99C472.098 449.99 472.099 449.99 472.099 449.99C472.1 449.99 472.1 449.99 472.101 449.99C472.101 449.99 472.102 449.99 472.102 449.99C472.103 449.99 472.103 449.99 472.103 449.99C472.104 449.99 472.104 449.99 472.105 449.99C472.105 449.99 472.106 449.99 472.106 449.99C472.107 449.99 472.107 449.99 472.108 449.99C472.108 449.99 472.108 449.99 472.109 449.99C472.109 449.99 472.11 449.99 472.11 449.99C472.111 449.99 472.111 449.99 472.112 449.99C472.112 449.99 472.113 449.99 472.113 449.99C472.113 449.99 472.114 449.99 472.114 449.99C472.115 449.99 472.115 449.99 472.116 449.99C472.116 449.99 472.117 449.99 472.117 449.99C472.118 449.99 472.118 449.99 472.118 449.99C472.119 449.99 472.119 449.99 472.12 449.99C472.12 449.99 472.121 449.99 472.121 449.99C472.122 449.99 472.122 449.99 472.123 449.99C472.123 449.99 472.124 449.99 472.124 449.99C472.124 449.99 472.125 449.99 472.125 449.99C472.126 449.99 472.126 449.99 472.127 449.99C472.127 449.99 472.128 449.99 472.128 449.99C472.129 449.99 472.129 449.99 472.129 449.99C472.13 449.99 472.13 449.99 472.131 449.99C472.131 449.99 472.132 449.99 472.132 449.99C472.133 449.99 472.133 449.99 472.134 449.99C472.134 449.99 472.134 449.99 472.135 449.99C472.135 449.99 472.136 449.99 472.136 449.99C472.137 449.99 472.137 449.99 472.138 449.99C472.138 449.99 472.139 449.99 472.139 449.99C472.139 449.99 472.14 449.99 472.14 449.99C472.141 449.99 472.141 449.99 472.142 449.99C472.142 449.99 472.143 449.99 472.143 449.99C472.144 449.99 472.144 449.99 472.144 449.99C472.145 449.99 472.145 449.99 472.146 449.99C472.146 449.99 472.147 449.99 472.147 449.99C472.148 449.99 472.148 449.99 472.149 449.99C472.149 449.99 472.149 449.99 472.15 449.99C472.15 449.99 472.151 449.99 472.151 449.99C472.152 449.99 472.152 449.99 472.153 449.99C472.153 449.99 472.154 449.99 472.154 449.99C472.154 449.99 472.155 449.99 472.155 449.99C472.156 449.99 472.156 449.99 472.157 449.99C472.157 449.99 472.158 449.99 472.158 449.99C472.159 449.99 472.159 449.99 472.159 449.99C472.16 449.99 472.16 449.99 472.161 449.99C472.161 449.99 472.162 449.99 472.162 449.99C472.163 449.99 472.163 449.99 472.164 449.99C472.164 449.99 472.165 449.99 472.165 449.99C472.165 449.99 472.166 449.99 472.166 449.99C472.167 449.99 472.167 449.99 472.168 449.99C472.168 449.99 472.169 449.99 472.169 449.99C472.17 449.99 472.17 449.99 472.17 449.99C472.171 449.99 472.171 449.99 472.172 449.99C472.172 449.99 472.173 449.99 472.173 449.99C472.174 449.99 472.174 449.99 472.175 449.99C472.175 449.99 472.175 449.99 472.176 449.99C472.176 449.99 472.177 449.99 472.177 449.99C472.178 449.99 472.178 449.99 472.179 449.99C472.179 449.99 472.18 449.99 472.18 449.99C472.18 449.99 472.181 449.99 472.181 449.99C472.182 449.99 472.182 449.99 472.183 449.99C472.183 449.99 472.184 449.99 472.184 449.99C472.185 449.99 472.185 449.99 472.185 449.99C472.186 449.99 472.186 449.99 472.187 449.99C472.187 449.99 472.188 449.99 472.188 449.99C472.189 449.99 472.189 449.99 472.19 449.99C472.19 449.99 472.19 449.99 472.191 449.99C472.191 449.99 472.192 449.99 472.192 449.99C472.193 449.99 472.193 449.99 472.194 449.99C472.194 449.99 472.195 449.99 472.195 449.99C472.195 449.99 472.196 449.99 472.196 449.99C472.197 449.99 472.197 449.99 472.198 449.99C472.198 449.99 472.199 449.99 472.199 449.99C472.2 449.99 472.2 449.99 472.201 449.99C472.201 449.99 472.201 449.99 472.202 449.99C472.202 449.99 472.203 449.99 472.203 449.99C472.204 449.99 472.204 449.99 472.205 449.99C472.205 449.99 472.206 449.99 472.206 449.99C472.206 449.99 472.207 449.99 472.207 449.99C472.208 449.99 472.208 449.99 472.209 449.99C472.209 449.99 472.21 449.99 472.21 449.99C472.211 449.99 472.211 449.99 472.211 449.99C472.212 449.99 472.212 449.99 472.213 449.99C472.213 449.99 472.214 449.99 472.214 449.99C472.215 449.99 472.215 449.99 472.216 449.99C472.216 449.99 472.216 449.99 472.217 449.99C472.217 449.99 472.218 449.99 472.218 449.99C472.219 449.99 472.219 449.99 472.22 449.99C472.22 449.99 472.221 449.99 472.221 449.99C472.221 449.99 472.222 449.99 472.222 449.99C472.223 449.99 472.223 449.99 472.224 449.99C472.224 449.99 472.225 449.99 472.225 449.99C472.226 449.99 472.226 449.99 472.226 449.99C472.227 449.99 472.227 449.99 472.228 449.99C472.228 449.99 472.229 449.99 472.229 449.99C472.23 449.99 472.23 449.99 472.231 449.99C472.231 449.99 472.232 449.99 472.232 449.99C472.232 449.99 472.233 449.99 472.233 449.99C472.234 449.99 472.234 449.99 472.235 449.99C472.235 449.99 472.236 449.99 472.236 449.99C472.237 449.99 472.237 449.99 472.237 449.99C472.238 449.99 472.238 449.99 472.239 449.99C472.239 449.99 472.24 449.99 472.24 449.99C472.241 449.99 472.241 449.99 472.242 449.99C472.242 449.99 472.242 449.99 472.243 449.99C472.243 449.99 472.244 449.99 472.244 449.99C472.245 449.99 472.245 449.99 472.246 449.99C472.246 449.99 472.247 449.99 472.247 449.99C472.247 449.99 472.248 449.99 472.248 449.99C472.249 449.99 472.249 449.99 472.25 449.99C472.25 449.99 472.251 449.99 472.251 449.99C472.252 449.99 472.252 449.99 472.252 449.99C472.253 449.99 472.253 449.99 472.254 449.99C472.254 449.99 472.255 449.99 472.255 449.99C472.256 449.99 472.256 449.99 472.257 449.99C472.257 449.99 472.257 449.99 472.258 449.99C472.258 449.99 472.259 449.99 472.259 449.99C472.26 449.99 472.26 449.99 472.261 449.99C472.261 449.99 472.262 449.99 472.262 449.99C472.262 449.99 472.263 449.99 472.263 449.99C472.264 449.99 472.264 449.99 472.265 449.99C472.265 449.99 472.266 449.99 472.266 449.99C472.267 449.99 472.267 449.99 472.267 449.99C472.268 449.99 472.268 449.99 472.269 449.99C472.269 449.99 472.27 449.99 472.27 449.99C472.271 449.99 472.271 449.99 472.272 449.99C472.272 449.99 472.273 449.99 472.273 449.99C472.273 449.99 472.274 449.99 472.274 449.99C472.275 449.99 472.275 449.99 472.276 449.99C472.276 449.99 472.277 449.99 472.277 449.99C472.278 449.99 472.278 449.99 472.278 449.99C472.279 449.99 472.279 449.99 472.28 449.99C472.28 449.99 472.281 449.99 472.281 449.99C472.282 449.99 472.282 449.99 472.283 449.99C472.283 449.99 472.283 449.99 472.284 449.99C472.284 449.99 472.285 449.99 472.285 449.99C472.286 449.99 472.286 449.99 472.287 449.99C472.287 449.99 472.288 449.99 472.288 449.99C472.288 449.99 472.289 449.99 472.289 449.99C472.29 449.99 472.29 449.99 472.291 449.99C472.291 449.99 472.292 449.99 472.292 449.99C472.293 449.99 472.293 449.99 472.293 449.99C472.294 449.99 472.294 449.99 472.295 449.99C472.295 449.99 472.296 449.99 472.296 449.99C472.297 449.99 472.297 449.99 472.298 449.99C472.298 449.99 472.298 449.99 472.299 449.99C472.299 449.99 472.3 449.99 472.3 449.99C472.301 449.99 472.301 449.99 472.302 449.99C472.302 449.99 472.303 449.99 472.303 449.99C472.303 449.99 472.304 449.99 472.304 449.99C472.305 449.99 472.305 449.99 472.306 449.99C472.306 449.99 472.307 449.99 472.307 449.99C472.308 449.99 472.308 449.99 472.309 449.99C472.309 449.99 472.309 449.99 472.31 449.99C472.31 449.99 472.311 449.99 472.311 449.99C472.312 449.99 472.312 449.99 472.313 449.99C472.313 449.99 472.314 449.99 472.314 449.99C472.314 449.99 472.315 449.99 472.315 449.99C472.316 449.99 472.316 449.99 472.317 449.99C472.317 449.99 472.318 449.99 472.318 449.99C472.319 449.99 472.319 449.99 472.319 449.99C472.32 449.99 472.32 449.99 472.321 449.99C472.321 449.99 472.322 449.99 472.322 449.99C472.323 449.99 472.323 449.99 472.324 449.99C472.324 449.99 472.324 449.99 472.325 449.99C472.325 449.99 472.326 449.99 472.326 449.99C472.327 449.99 472.327 449.99 472.328 449.99C472.328 449.99 472.329 449.99 472.329 449.99C472.329 449.99 472.33 449.99 472.33 449.99C472.331 449.99 472.331 449.99 472.332 449.99C472.332 449.99 472.333 449.99 472.333 449.99C472.334 449.99 472.334 449.99 472.335 449.99C472.335 449.99 472.335 449.99 472.336 449.99C472.336 449.99 472.337 449.99 472.337 449.99C472.338 449.99 472.338 449.99 472.339 449.99C472.339 449.99 472.34 449.99 472.34 449.99C472.34 449.99 472.341 449.99 472.341 449.99C472.342 449.99 472.342 449.99 472.343 449.99C472.343 449.99 472.344 449.99 472.344 449.99C472.345 449.99 472.345 449.99 472.345 449.99C472.346 449.99 472.346 449.99 472.347 449.99C472.347 449.99 472.348 449.99 472.348 449.99C472.349 449.99 472.349 449.99 472.35 449.99C472.35 449.99 472.35 449.99 472.351 449.99C472.351 449.99 472.352 449.99 472.352 449.99C472.353 449.99 472.353 449.99 472.354 449.99C472.354 449.99 472.355 449.99 472.355 449.99C472.355 449.99 472.356 449.99 472.356 449.99C472.357 449.99 472.357 449.99 472.358 449.99C472.358 449.99 472.359 449.99 472.359 449.99C472.36 449.99 472.36 449.99 472.36 449.99C472.361 449.99 472.361 449.99 472.362 449.99C472.362 449.99 472.363 449.99 472.363 449.99C472.364 449.99 472.364 449.99 472.365 449.99C472.365 449.99 472.365 449.99 472.366 449.99C472.366 449.99 472.367 449.99 472.367 449.99C472.368 449.99 472.368 449.99 472.369 449.99C472.369 449.99 472.37 449.99 472.37 449.99C472.37 449.99 472.371 449.99 472.371 449.99C472.372 449.99 472.372 449.99 472.373 449.99C472.373 449.99 472.374 449.99 472.374 449.99C472.375 449.99 472.375 449.99 472.376 449.99C472.376 449.99 472.376 449.99 472.377 449.99C472.377 449.99 472.378 449.99 472.378 449.99C472.379 449.99 472.379 449.99 472.38 449.99C472.38 449.99 472.381 449.99 472.381 449.99C472.381 449.99 472.382 449.99 472.382 449.99C472.383 449.99 472.383 449.99 472.384 449.99C472.384 449.99 472.385 449.99 472.385 449.99C472.386 449.99 472.386 449.99 472.386 449.99C472.387 449.99 472.387 449.99 472.388 449.99C472.388 449.99 472.389 449.99 472.389 449.99C472.39 449.99 472.39 449.99 472.391 449.99C472.391 449.99 472.391 449.99 472.392 449.99C472.392 449.99 472.393 449.99 472.393 449.99C472.394 449.99 472.394 449.99 472.395 449.99C472.395 449.99 472.396 449.99 472.396 449.99C472.396 449.99 472.397 449.99 472.397 449.99C472.398 449.99 472.398 449.99 472.399 449.99C472.399 449.99 472.4 449.99 472.4 449.99C472.401 449.99 472.401 449.99 472.401 449.99C472.402 449.99 472.402 449.99 472.403 449.99V448.99ZM471.703 448.99V447.99C467.897 447.99 464.772 449.135 462.448 451.511L463.163 452.21L463.878 452.909C465.753 450.992 468.322 449.99 471.703 449.99V448.99ZM463.163 452.21L462.448 451.511C460.108 453.902 459.013 457.293 459.013 461.52H460.013H461.013C461.013 457.627 462.017 454.811 463.878 452.909L463.163 452.21ZM460.013 461.52H459.013V480H460.013H461.013V461.52H460.013ZM460.013 480V479H453.293V480V481H460.013V480ZM515.133 477.97L515.625 477.099V477.099L515.133 477.97ZM508.273 471.25L507.409 471.752L507.412 471.758L508.273 471.25ZM508.273 451.65L507.412 451.142V451.142L508.273 451.65ZM515.133 445L515.614 445.877L515.625 445.871L515.133 445ZM534.943 445L534.452 445.871L534.46 445.876L534.469 445.88L534.943 445ZM541.803 451.65L540.936 452.148L540.941 452.156L540.946 452.164L541.803 451.65ZM541.803 471.25L540.942 470.742L540.936 470.752L541.803 471.25ZM534.943 477.97L534.458 477.096L534.452 477.099L534.943 477.97ZM531.443 472.93L530.954 472.058L530.945 472.063L531.443 472.93ZM535.923 468.38L536.801 468.86L536.805 468.852L535.923 468.38ZM535.923 454.59L535.046 455.07L535.051 455.079L535.923 454.59ZM531.443 450.04L530.945 450.907L530.954 450.912L531.443 450.04ZM514.223 454.59L515.087 455.095L515.092 455.086L514.223 454.59ZM514.223 468.38L513.35 468.867L513.355 468.876L514.223 468.38ZM518.703 472.93L518.205 473.797L518.703 472.93ZM525.073 480.42V479.42C521.491 479.42 518.351 478.638 515.625 477.099L515.133 477.97L514.642 478.841C517.703 480.569 521.19 481.42 525.073 481.42V480.42ZM515.133 477.97L515.625 477.099C512.884 475.552 510.725 473.436 509.135 470.742L508.273 471.25L507.412 471.758C509.182 474.757 511.596 477.122 514.642 478.841L515.133 477.97ZM508.273 471.25L509.138 470.748C507.555 468.02 506.753 464.93 506.753 461.45H505.753H504.753C504.753 465.25 505.632 468.693 507.409 471.752L508.273 471.25ZM505.753 461.45H506.753C506.753 457.921 507.556 454.834 509.135 452.158L508.273 451.65L507.412 451.142C505.631 454.16 504.753 457.606 504.753 461.45H505.753ZM508.273 451.65L509.135 452.158C510.723 449.466 512.879 447.377 515.614 445.877L515.133 445L514.653 444.123C511.601 445.796 509.183 448.141 507.412 451.142L508.273 451.65ZM515.133 445L515.625 445.871C518.351 444.332 521.491 443.55 525.073 443.55V442.55V441.55C521.19 441.55 517.703 442.401 514.642 444.129L515.133 445ZM525.073 442.55V443.55C528.607 443.55 531.724 444.331 534.452 445.871L534.943 445L535.435 444.129C532.376 442.402 528.913 441.55 525.073 441.55V442.55ZM534.943 445L534.469 445.88C537.248 447.38 539.397 449.466 540.936 452.148L541.803 451.65L542.671 451.152C540.943 448.141 538.519 445.793 535.418 444.12L534.943 445ZM541.803 451.65L540.946 452.164C542.52 454.788 543.323 457.871 543.323 461.45H544.323H545.323C545.323 457.562 544.447 454.112 542.661 451.136L541.803 451.65ZM544.323 461.45H543.323C543.323 464.979 542.521 468.066 540.942 470.742L541.803 471.25L542.665 471.758C544.446 468.74 545.323 465.294 545.323 461.45H544.323ZM541.803 471.25L540.936 470.752C539.396 473.437 537.243 475.549 534.458 477.096L534.943 477.97L535.429 478.844C538.524 477.125 540.945 474.756 542.671 471.748L541.803 471.25ZM534.943 477.97L534.452 477.099C531.724 478.639 528.607 479.42 525.073 479.42V480.42V481.42C528.913 481.42 532.376 480.568 535.435 478.841L534.943 477.97ZM525.073 474.54V475.54C527.609 475.54 529.908 474.966 531.942 473.797L531.443 472.93L530.945 472.063C529.246 473.04 527.297 473.54 525.073 473.54V474.54ZM531.443 472.93L531.933 473.802C534.013 472.635 535.639 470.981 536.801 468.86L535.923 468.38L535.046 467.9C534.061 469.699 532.701 471.078 530.954 472.058L531.443 472.93ZM535.923 468.38L536.805 468.852C537.967 466.68 538.534 464.203 538.534 461.45H537.534H536.534C536.534 463.923 536.027 466.067 535.042 467.908L535.923 468.38ZM537.534 461.45H538.534C538.534 458.655 537.969 456.192 536.796 454.101L535.923 454.59L535.051 455.079C536.025 456.814 536.534 458.925 536.534 461.45H537.534ZM535.923 454.59L536.801 454.11C535.639 451.989 534.013 450.335 531.933 449.168L531.443 450.04L530.954 450.912C532.701 451.892 534.061 453.271 535.046 455.07L535.923 454.59ZM531.443 450.04L531.942 449.173C529.908 448.004 527.609 447.43 525.073 447.43V448.43V449.43C527.297 449.43 529.246 449.93 530.945 450.907L531.443 450.04ZM525.073 448.43V447.43C522.537 447.43 520.239 448.004 518.205 449.173L518.703 450.04L519.202 450.907C520.901 449.93 522.85 449.43 525.073 449.43V448.43ZM518.703 450.04L518.205 449.173C516.177 450.339 514.559 451.987 513.355 454.094L514.223 454.59L515.092 455.086C516.128 453.273 517.497 451.887 519.202 450.907L518.703 450.04ZM514.223 454.59L513.36 454.085C512.134 456.179 511.543 458.648 511.543 461.45H512.543H513.543C513.543 458.932 514.073 456.827 515.086 455.095L514.223 454.59ZM512.543 461.45H511.543C511.543 464.21 512.136 466.692 513.35 468.867L514.223 468.38L515.097 467.893C514.071 466.054 513.543 463.916 513.543 461.45H512.543ZM514.223 468.38L513.355 468.876C514.559 470.983 516.177 472.631 518.205 473.797L518.703 472.93L519.202 472.063C517.497 471.083 516.128 469.697 515.092 467.884L514.223 468.38ZM518.703 472.93L518.205 473.797C520.239 474.966 522.537 475.54 525.073 475.54V474.54V473.54C522.85 473.54 520.901 473.04 519.202 472.063L518.703 472.93Z" fill="#16515F" mask="url(#path-1-outside-1_232_1008)"/>
<path d="M121.989 283.813C122.145 281.886 120.709 280.198 118.783 280.042C116.856 279.886 115.168 281.321 115.012 283.248L118.5 283.53L121.989 283.813ZM241 207.031L244.109 208.639L241 207.031ZM241 271.53L243.359 274.116V274.116L241 271.53ZM284.5 320.03L287.044 317.626L284.5 320.03ZM118.5 283.53L115.012 283.248C114.487 289.732 115.47 295.126 118.281 299.076C121.172 303.14 125.572 305.087 130.551 305.47C140.149 306.209 152.955 301.272 166.327 293.059C193.351 276.463 225.414 244.784 244.109 208.639L241 207.031L237.891 205.423C219.821 240.36 188.678 271.118 162.664 287.094C149.518 295.167 138.347 299.05 131.088 298.491C127.639 298.225 125.39 296.993 123.984 295.018C122.497 292.928 121.535 289.422 121.989 283.813L118.5 283.53ZM241 207.031L244.109 208.639C245.694 205.575 246.944 203.296 247.906 201.687C248.388 200.883 248.778 200.278 249.086 199.843C249.416 199.376 249.568 199.223 249.564 199.227C249.553 199.237 249.513 199.274 249.445 199.324C249.379 199.373 249.26 199.456 249.091 199.541C248.795 199.69 248.017 200.009 246.998 199.777C245.876 199.522 245.224 198.779 244.926 198.267C244.666 197.818 244.609 197.451 244.599 197.383C244.575 197.233 244.605 197.292 244.565 197.725C244.53 198.103 244.458 198.618 244.339 199.285C243.345 204.856 239.955 216.61 236.522 229.589C233.16 242.297 229.776 256.13 229.084 265.2C228.91 267.488 228.892 269.636 229.141 271.467C229.372 273.163 229.915 275.259 231.448 276.725C233.328 278.523 235.738 278.558 237.75 277.848C239.589 277.198 241.463 275.846 243.359 274.116L241 271.53L238.641 268.945C236.975 270.465 235.932 271.066 235.419 271.247C235.079 271.367 235.704 271.109 236.286 271.666C236.52 271.889 236.25 271.794 236.077 270.522C235.922 269.386 235.907 267.79 236.064 265.732C236.698 257.418 239.891 244.228 243.289 231.379C246.616 218.8 250.169 206.463 251.23 200.514C251.368 199.741 251.476 199.013 251.535 198.366C251.59 197.773 251.627 197.025 251.515 196.308C251.461 195.956 251.336 195.365 250.982 194.755C250.591 194.082 249.82 193.241 248.553 192.952C247.389 192.687 246.439 193.039 245.944 193.288C245.432 193.546 245.042 193.872 244.787 194.11C243.865 194.971 242.894 196.43 241.899 198.093C240.83 199.881 239.504 202.304 237.891 205.423L241 207.031ZM241 271.53L243.359 274.116C259.265 259.606 262.56 257.438 277.255 238.69L274.5 236.53L271.746 234.371C257.44 252.623 254.524 254.455 238.641 268.945L241 271.53ZM274.5 236.53L277.255 238.69C278.141 237.56 278.721 236.903 279.067 236.572C279.252 236.394 279.236 236.442 279.056 236.544C279.01 236.571 278.006 237.177 276.648 236.719C275.082 236.192 274.671 234.851 274.601 234.574C274.516 234.237 274.549 234.061 274.539 234.243C274.522 234.552 274.429 235.173 274.205 236.23C273.382 240.099 271.029 248.457 269.354 257.891C265.982 276.874 264.507 303.976 281.957 322.435L284.5 320.03L287.044 317.626C272.125 301.846 272.901 277.948 276.246 259.116C277.928 249.642 280.051 242.389 281.052 237.686C281.283 236.599 281.48 235.518 281.529 234.622C281.551 234.201 281.561 233.548 281.389 232.866C281.232 232.242 280.671 230.688 278.883 230.086C277.304 229.554 276.008 230.224 275.59 230.462C275.04 230.776 274.575 231.181 274.226 231.515C273.504 232.207 272.672 233.189 271.746 234.371L274.5 236.53ZM284.5 320.03L281.957 322.435C285.382 326.058 290.262 328.862 295.89 331.073C301.551 333.298 308.199 335.012 315.38 336.328C329.742 338.959 346.59 340.061 362.706 340.32C378.843 340.58 394.357 339.996 406.095 339.221C411.964 338.833 416.91 338.397 420.534 337.991C422.342 337.789 423.851 337.59 424.994 337.405C425.562 337.313 426.076 337.219 426.508 337.121C426.831 337.048 427.447 336.904 427.995 336.63L426.43 333.5L424.864 330.369C425.163 330.22 425.312 330.215 424.966 330.293C424.729 330.347 424.371 330.415 423.875 330.495C422.89 330.655 421.506 330.838 419.755 331.035C416.263 331.426 411.426 331.854 405.634 332.236C394.051 333 378.731 333.577 362.818 333.321C346.884 333.065 330.466 331.975 316.642 329.442C309.73 328.176 303.554 326.564 298.45 324.558C293.312 322.539 289.483 320.207 287.044 317.626L284.5 320.03Z" fill="#16515F"/>
<path d="M215.744 73.8833C262.701 69.3252 297.811 78.5964 328.051 98.5854C356.435 117.348 370.299 134.51 386.904 157.464C395.302 169.073 402.236 181.451 407.077 190.948C408.937 194.596 410.484 197.813 411.684 200.388C414.145 206.156 415.323 209.68 415.422 209.979C415.425 209.933 415.428 209.887 415.431 209.841C417.256 220.422 419.119 229.447 420.888 238.426C422.587 247.052 424.202 255.663 425.628 265.648C422.046 267.008 419.5 270.472 419.5 274.531C419.5 279.38 423.134 283.376 427.826 283.955C428.943 295.155 429.879 307.772 430.573 318.357C431.008 324.981 431.347 330.8 431.578 334.961C431.615 335.617 431.646 336.231 431.677 336.8C428.519 328.996 422.135 315.283 412.5 304.031C401.37 291.032 385.003 284.032 385 284.031C385 284.031 396.799 269.211 405.5 251.531C412.228 237.86 414.643 221.976 415.422 209.987C414.817 209.024 379.35 152.966 304.5 126.199C219.871 95.9342 126 152.699 126 152.699L109 111.03C109.009 111.024 123.759 102.073 146.728 92.7544C150.836 91.228 155.502 89.5436 160.499 87.8267C171.082 84.1904 183.065 80.4363 194.359 77.6987C201.285 76.1495 208.439 74.8453 215.744 73.8833ZM159.5 11.5308C159.5 11.5308 268.5 -28.4691 359.5 40.5308C413.59 81.5441 419.565 198.169 419.91 206.077C423.851 216.794 430.791 231.755 442.131 245.031C454.718 259.767 460.981 269.5 461 269.531C460.98 269.612 458.47 279.616 451 300.531C446.337 313.586 440.162 328.514 436.682 336.747C436.647 336.115 436.612 335.425 436.571 334.684C436.339 330.51 435.999 324.674 435.562 318.03C434.863 307.367 433.916 294.591 432.78 283.244C436.145 281.782 438.5 278.433 438.5 274.531C438.5 269.833 435.09 265.933 430.609 265.169C429.157 254.961 427.513 246.192 425.793 237.46C423.535 225.998 421.16 214.643 418.9 200.115C415.352 177.306 402.254 141.071 394.666 125.882C386.661 109.858 380.076 97.8101 371.803 86.8667C363.513 75.9011 353.594 66.1283 338.983 54.5405C324.722 43.2302 306.332 36.3796 289.823 32.2808C273.287 28.1751 258.419 26.778 251.023 26.5015C224.009 25.4916 199.917 29.0245 182.584 32.8062C173.914 34.6978 166.924 36.6546 162.093 38.1411C160.522 38.6243 159.18 39.0583 158.081 39.4243L159.5 11.5308ZM183.65 37.6919C200.693 33.9736 224.351 30.5075 250.837 31.4976C257.941 31.7632 272.462 33.122 288.618 37.1333C289.995 37.4752 291.382 37.8367 292.776 38.2173C301.332 40.6917 309.979 43.8407 318.653 47.7739C324.801 50.782 330.651 54.3137 335.876 58.4575C350.265 69.8694 359.852 79.3483 367.815 89.8823C367.969 90.086 368.122 90.291 368.274 90.4956C389.296 121.144 403.028 160.693 410.501 186.672C405.655 177.335 398.972 165.616 390.955 154.534C374.19 131.359 359.91 113.651 330.808 94.4136C299.276 73.5705 262.686 64.1067 214.178 69.0122C206.645 69.774 197.978 71.5647 189.119 73.8589C170.016 78.1314 154.495 83.9813 144.919 88.0923C141.916 89.208 139.21 90.2392 136.888 91.1392C135.923 91.5129 135.026 91.8658 134.199 92.1909L127.633 58.0698C127.633 58.0698 138.358 51.8513 156.314 45.3237C156.319 45.3358 156.319 45.3364 156.319 45.3364L156.323 45.3345C156.327 45.3331 156.333 45.3308 156.342 45.3276C156.359 45.321 156.387 45.3104 156.425 45.2964C156.5 45.2683 156.615 45.2255 156.77 45.1694C157.078 45.0571 157.544 44.8905 158.157 44.6782C159.385 44.2535 161.207 43.6456 163.564 42.9204C168.28 41.4695 175.134 39.5501 183.65 37.6919Z" fill="#16515F"/>
</svg>
