<svg width="230" height="231" viewBox="0 0 230 231" fill="none" xmlns="http://www.w3.org/2000/svg">
<path d="M8.48721 185.2C8.58907 183.943 7.65104 182.841 6.39214 182.739C5.13321 182.637 4.03008 183.574 3.92822 184.831L6.2077 185.015L8.48721 185.2ZM6.2077 185.015L3.92822 184.831C3.58546 189.062 4.22781 192.582 6.06408 195.16C7.95344 197.812 10.8282 199.082 14.0817 199.332C20.3532 199.814 28.7203 196.593 37.4583 191.233C55.1157 180.404 76.066 159.732 88.2815 136.146L86.2501 135.096L84.2186 134.047C72.4115 156.845 52.0621 176.916 35.0646 187.341C26.475 192.609 19.1759 195.143 14.4328 194.778C12.179 194.604 10.7093 193.801 9.79089 192.512C8.8194 191.148 8.19062 188.86 8.48721 185.2L6.2077 185.015ZM86.2501 135.096L88.2815 136.146C89.3172 134.146 90.1339 132.659 90.7625 131.609C91.0775 131.085 91.3323 130.691 91.5335 130.406C91.7492 130.101 91.8485 130.001 91.8459 130.004C91.8387 130.011 91.8126 130.035 91.7681 130.068C91.725 130.1 91.6472 130.153 91.5368 130.209C91.3434 130.306 90.835 130.514 90.1692 130.363C89.4361 130.197 89.0101 129.712 88.816 129.378C88.6455 129.085 88.6082 128.845 88.6017 128.801C88.586 128.703 88.6056 128.741 88.5795 129.024C88.5566 129.271 88.5096 129.607 88.4318 130.042C87.7823 133.678 85.5673 141.347 83.3241 149.817C81.1273 158.109 78.9162 167.136 78.4641 173.054C78.3504 174.547 78.3386 175.949 78.5013 177.144C78.6522 178.25 79.007 179.618 80.0087 180.575C81.2371 181.748 82.8118 181.771 84.1265 181.308C85.3281 180.883 86.5526 180.001 87.7915 178.872L86.2501 177.185L84.7087 175.498C83.6201 176.49 82.9386 176.882 82.6034 177C82.3812 177.078 82.7896 176.911 83.1699 177.274C83.3228 177.42 83.1464 177.357 83.0333 176.527C82.9321 175.786 82.9223 174.745 83.0248 173.401C83.4391 167.977 85.5254 159.369 87.7457 150.985C89.9196 142.776 92.2412 134.726 92.9344 130.845C93.0246 130.339 93.0952 129.865 93.1337 129.442C93.1697 129.055 93.1939 128.567 93.1207 128.099C93.0854 127.87 93.0037 127.484 92.7724 127.086C92.5169 126.647 92.0131 126.098 91.1853 125.909C90.4247 125.736 89.804 125.966 89.4805 126.129C89.146 126.297 88.8912 126.51 88.7245 126.666C88.1221 127.227 87.4876 128.179 86.8375 129.264C86.139 130.431 85.2726 132.012 84.2186 134.047L86.2501 135.096ZM86.2501 177.185L87.7915 178.872C98.1846 169.404 100.338 167.989 109.939 155.755L108.139 154.346L106.34 152.938C96.9921 164.847 95.0868 166.043 84.7087 175.498L86.2501 177.185ZM108.139 154.346L109.939 155.755C110.518 155.018 110.897 154.589 111.123 154.373C111.244 154.257 111.234 154.288 111.116 154.355C111.086 154.373 110.43 154.768 109.543 154.469C108.52 154.125 108.251 153.251 108.205 153.069C108.15 152.85 108.171 152.735 108.165 152.853C108.154 153.055 108.093 153.461 107.947 154.15C107.409 156.675 105.871 162.129 104.777 168.285C102.574 180.672 101.61 198.358 113.012 210.402L114.673 208.834L116.336 207.264C106.587 196.967 107.094 181.373 109.28 169.084C110.379 162.903 111.766 158.169 112.42 155.1C112.571 154.391 112.7 153.685 112.732 153.101C112.746 152.826 112.753 152.4 112.641 151.955C112.538 151.548 112.171 150.534 111.003 150.141C109.971 149.794 109.125 150.232 108.851 150.386C108.492 150.591 108.188 150.855 107.96 151.073C107.488 151.525 106.945 152.166 106.34 152.938L108.139 154.346ZM114.673 208.834L113.012 210.402C115.25 212.767 118.438 214.596 122.116 216.039C125.815 217.491 130.159 218.609 134.851 219.468C144.235 221.185 155.244 221.904 165.774 222.073C176.318 222.243 186.455 221.862 194.125 221.356C197.959 221.103 201.191 220.818 203.559 220.553C204.741 220.422 205.727 220.292 206.473 220.172C206.845 220.112 207.18 220.05 207.463 219.986C207.674 219.938 208.076 219.844 208.434 219.665L207.412 217.623L206.388 215.58C206.584 215.482 206.681 215.479 206.455 215.53C206.3 215.565 206.066 215.61 205.742 215.663C205.099 215.766 204.194 215.886 203.05 216.014C200.768 216.269 197.608 216.549 193.823 216.798C186.255 217.297 176.245 217.673 165.847 217.506C155.436 217.339 144.708 216.628 135.675 214.975C131.159 214.149 127.123 213.097 123.788 211.788C120.431 210.47 117.929 208.949 116.336 207.264L114.673 208.834Z" fill="#2A99B4"/>
<path d="M69.7475 48.2121C100.43 45.2377 123.371 51.2877 143.13 64.3313C161.676 76.5745 170.735 87.7741 181.585 102.753C187.072 110.327 191.603 118.404 194.766 124.602C195.982 126.982 196.992 129.081 197.776 130.762C199.385 134.525 200.154 136.825 200.219 137.02C200.221 136.99 200.223 136.96 200.225 136.931C201.417 143.835 202.635 149.724 203.79 155.583C204.901 161.213 205.956 166.831 206.888 173.347C204.547 174.234 202.884 176.494 202.884 179.143C202.884 182.307 205.258 184.915 208.324 185.293C209.054 192.602 209.665 200.834 210.119 207.741C210.403 212.064 210.624 215.861 210.775 218.577C210.8 219.004 210.82 219.405 210.84 219.777C208.777 214.684 204.605 205.736 198.31 198.393C191.037 189.911 180.343 185.343 180.341 185.342C180.341 185.342 188.05 175.672 193.736 164.135C198.132 155.214 199.71 144.849 200.219 137.025C199.823 136.396 176.649 99.8168 127.741 82.3502C72.4441 62.6012 11.108 99.6425 11.108 99.6425L0 72.4518C0.013047 72.4439 9.64915 66.605 24.6515 60.5263C27.3363 59.5303 30.385 58.4311 33.6499 57.3108C40.5649 54.9379 48.3947 52.4882 55.7746 50.7018C60.2999 49.6909 64.9745 48.8398 69.7475 48.2121ZM32.9972 7.52445C32.9972 7.52445 104.219 -18.5772 163.679 26.4482C199.022 53.2111 202.926 129.314 203.151 134.474C205.727 141.468 210.261 151.23 217.671 159.893C225.895 169.509 229.988 175.861 230 175.88C229.987 175.931 228.348 182.459 223.466 196.109C220.419 204.628 216.384 214.369 214.11 219.742C214.088 219.329 214.065 218.88 214.038 218.395C213.886 215.672 213.664 211.864 213.379 207.528C212.922 200.57 212.303 192.233 211.561 184.829C213.76 183.875 215.298 181.69 215.298 179.143C215.298 176.077 213.07 173.533 210.142 173.035C209.193 166.373 208.119 160.651 206.995 154.953C205.52 147.473 203.968 140.064 202.491 130.584C200.173 115.7 191.615 92.0548 186.657 82.144C181.426 71.6876 177.124 63.8253 171.718 56.6843C166.301 49.5288 159.82 43.1517 150.273 35.5901C140.955 28.2096 128.939 23.7393 118.151 21.0647C107.347 18.3856 97.6317 17.4739 92.7991 17.2935C75.1479 16.6345 59.4058 18.9398 48.0805 21.4075C42.4153 22.6419 37.8481 23.9188 34.6913 24.8888C33.6652 25.2041 32.7879 25.4873 32.07 25.7261L32.9972 7.52445ZM48.7772 24.5957C59.9128 22.1693 75.3714 19.9075 92.6776 20.5536C97.3194 20.7269 106.808 21.6136 117.364 24.2312C118.252 24.4513 119.147 24.6836 120.046 24.9283C125.644 26.5436 131.303 28.6003 136.979 31.1702C141 33.1341 144.826 35.4398 148.243 38.1461C157.645 45.5929 163.909 51.7782 169.112 58.6521C169.213 58.785 169.313 58.9189 169.412 59.0523C183.148 79.0516 192.121 104.859 197.003 121.812C193.837 115.719 189.47 108.072 184.232 100.84C173.278 85.7173 163.947 74.1621 144.931 61.609C124.328 48.008 100.42 41.8325 68.7243 45.0335C63.8019 45.5306 58.1394 46.6991 52.3505 48.1962C39.8687 50.9842 29.7266 54.8015 23.4697 57.4841C21.5077 58.2121 19.7395 58.885 18.2221 59.4723C17.5919 59.7162 17.0053 59.9465 16.4654 60.1586L12.1748 37.8931C12.1748 37.8931 19.1828 33.8353 30.9157 29.5757C30.9187 29.5836 30.9189 29.584 30.9189 29.584L30.9214 29.5828C30.9238 29.5819 30.928 29.5804 30.9336 29.5784C30.945 29.5741 30.9632 29.5671 30.9878 29.5579C31.037 29.5397 31.1123 29.5117 31.213 29.4751C31.4147 29.4018 31.7189 29.2931 32.1198 29.1545C32.9217 28.8774 34.1129 28.4808 35.6529 28.0075C38.734 27.0607 43.2124 25.8082 48.7772 24.5957Z" fill="#2A99B4"/>
</svg>
