<svg width="402" height="729" viewBox="0 0 402 729" fill="none" xmlns="http://www.w3.org/2000/svg">
<path d="M-49.6364 340.162C-46.031 331.033 -46.295 321.827 -50.2249 319.597C-54.1548 317.367 -60.2639 322.962 -63.8693 332.092L-49.6364 340.162ZM-63.8693 332.092C-75.9992 362.807 -83.0031 389.458 -83.5801 410.578C-84.1735 432.308 -77.894 445.031 -67.7055 450.701C-48.0632 461.627 -11.8176 447.768 31.2139 418.625C118.17 359.739 241.659 232.33 343.622 73.2036L335.537 52.9882C236.984 206.796 117.055 330.492 33.3475 387.182C-8.95281 415.827 -39.8504 425.874 -54.7052 417.611C-61.765 413.687 -64.5734 406.045 -64.2858 395.484C-63.9802 384.31 -60.1328 366.741 -49.6364 340.162L-63.8693 332.092ZM343.622 73.2036C352.263 59.7146 358.847 49.7373 363.67 42.7563C366.081 39.2635 367.954 36.6637 369.362 34.8105C370.872 32.8221 371.464 32.2054 371.449 32.2205C371.408 32.2615 371.258 32.4074 371.025 32.598C370.798 32.7825 370.4 33.0855 369.885 33.3643C368.988 33.8515 366.755 34.7873 364.93 32.8909C362.921 30.8016 362.758 26.7357 362.98 24.0479C363.174 21.6933 363.673 19.886 363.764 19.5531C363.968 18.8159 363.93 19.1228 363.11 21.169C362.396 22.9553 361.363 25.3746 359.974 28.4832C348.367 54.4616 321.066 108.273 291.596 167.93C262.74 226.347 231.926 290.14 215.048 333.147C210.79 343.993 207.11 354.289 204.55 363.273C202.179 371.59 199.809 382.068 200.66 390.281C201.706 400.36 206.893 402.381 212.478 400.515C217.581 398.813 223.951 393.761 231.012 386.917L229.506 358.468C223.303 364.484 220.011 366.567 218.59 367.042C217.647 367.357 219.444 366.6 219.766 369.718C219.896 370.971 219.473 370.305 221.252 364.067C222.839 358.496 225.511 350.825 229.339 341.065C244.81 301.647 274.118 240.786 303.295 181.725C331.857 123.905 360.5 67.4163 372.891 39.6813C374.502 36.0756 375.971 32.6652 377.2 29.6024C378.322 26.7989 379.672 23.2378 380.644 19.7087C381.12 17.9797 381.85 15.0459 382.113 11.8458C382.405 8.3137 382.152 3.68427 379.881 1.32431C377.796 -0.842421 375.134 0.116242 373.634 0.93237C372.081 1.77451 370.681 3.04267 369.722 3.99002C366.253 7.41376 361.669 13.6698 356.685 20.8868C351.326 28.6448 344.333 39.2594 335.537 52.9882L343.622 73.2036ZM231.012 386.917C290.23 329.493 301.079 321.621 364.843 242.925L360.169 217.963C298.094 294.575 288.641 301.128 229.506 358.468L231.012 386.917ZM364.843 242.925C368.687 238.182 371.063 235.477 372.378 234.152C373.084 233.442 372.968 233.658 372.403 234.011C372.255 234.103 369.042 236.241 366.861 233.001C364.347 229.264 365.723 222.516 366.042 221.129C366.428 219.447 366.797 218.63 366.467 219.493C365.909 220.963 364.653 223.876 362.373 228.774C354.023 246.713 334.737 285.023 315.098 329.02C275.584 417.545 226.438 546.5 233.141 648.511L252.364 629.343C246.636 542.128 288.826 428.019 328.027 340.193C347.747 296.016 364.662 262.832 374.81 241.027C377.155 235.988 379.419 230.95 381.041 226.687C381.805 224.685 382.931 221.557 383.716 218.149C384.431 215.035 385.841 207.145 382.972 202.879C380.434 199.111 376.476 201.334 375.165 202.155C373.436 203.238 371.735 204.825 370.411 206.161C367.665 208.925 364.192 213 360.169 217.963L364.843 242.925ZM233.141 648.511C234.455 668.539 240.33 685.745 248.83 700.688C257.385 715.72 268.951 729.052 282.355 740.889C309.157 764.562 343.966 782.802 378.611 796.433C413.301 810.081 448.063 819.203 474.932 824.506C488.362 827.159 499.868 828.869 508.448 829.706C512.728 830.122 516.348 830.331 519.148 830.321C520.54 830.316 521.821 830.261 522.927 830.122C523.754 830.02 525.337 829.802 526.994 828.908L530.792 796.449C531.693 795.963 532.028 796.055 531.143 796.163C530.537 796.235 529.639 796.291 528.423 796.293C526.008 796.304 522.687 796.119 518.543 795.714C510.276 794.906 499.023 793.243 485.766 790.629C459.255 785.393 424.927 776.386 390.719 762.925C356.468 749.443 322.573 731.596 296.77 708.811C283.871 697.422 273.158 684.937 265.447 671.385C257.682 657.743 253.303 643.602 252.364 629.343L233.141 648.511Z" fill="#2A99B4" fill-opacity="0.1"/>
</svg>
